<?xml version="1.0" encoding="utf-8" ?>
<svg baseProfile="tiny" height="860px" version="1.2" width="860px" xmlns="http://www.w3.org/2000/svg" xmlns:ev="http://www.w3.org/2001/xml-events" xmlns:xlink="http://www.w3.org/1999/xlink"><defs /><path d="M 37 854 Z" fill="black" stroke="none" /><path d="M 614 852 Z" fill="black" stroke="none" /><path d="M 603 852 Z" fill="black" stroke="none" /><path d="M 14 848 L 14 849 Z" fill="black" stroke="none" /><path d="M 427 840 Z" fill="black" stroke="none" /><path d="M 420 835 Z" fill="black" stroke="none" /><path d="M 606 833 Z" fill="black" stroke="none" /><path d="M 427 825 L 423 829 L 423 834 L 424 835 L 424 836 L 425 837 L 433 837 L 433 836 L 434 835 L 434 832 L 435 831 L 435 828 L 434 827 L 434 826 L 433 826 L 432 825 Z" fill="black" stroke="none" /><path d="M 398 825 L 398 826 Z" fill="black" stroke="none" /><path d="M 435 824 Z" fill="black" stroke="none" /><path d="M 42 823 Z" fill="black" stroke="none" /><path d="M 460 813 L 461 813 Z" fill="black" stroke="none" /><path d="M 629 808 Z" fill="black" stroke="none" /><path d="M 643 805 Z" fill="black" stroke="none" /><path d="M 383 805 L 384 805 Z" fill="black" stroke="none" /><path d="M 633 801 Z" fill="black" stroke="none" /><path d="M 288 801 Z" fill="black" stroke="none" /><path d="M 65 801 Z" fill="black" stroke="none" /><path d="M 427 795 L 426 796 L 424 796 L 420 800 L 420 803 L 419 804 L 419 809 L 420 810 L 420 811 L 421 811 L 422 812 L 422 813 L 425 816 L 424 817 L 425 816 L 427 816 L 428 815 L 429 816 L 431 816 L 432 815 L 433 815 L 437 811 L 437 807 L 438 806 L 438 802 L 437 801 L 437 800 L 433 796 L 431 796 L 430 795 Z" fill="black" stroke="none" /><path d="M 281 794 L 281 795 L 282 795 L 282 794 Z" fill="black" stroke="none" /><path d="M 635 790 Z" fill="black" stroke="none" /><path d="M 550 789 L 550 790 Z" fill="black" stroke="none" /><path d="M 489 788 Z" fill="black" stroke="none" /><path d="M 276 787 Z" fill="black" stroke="none" /><path d="M 556 786 Z" fill="black" stroke="none" /><path d="M 294 786 Z" fill="black" stroke="none" /><path d="M 574 782 L 574 784 L 573 785 L 573 786 L 573 785 L 574 784 L 575 784 L 575 783 Z" fill="black" stroke="none" /><path d="M 571 781 L 570 782 L 568 782 L 568 785 L 567 786 L 568 786 L 569 787 L 568 788 L 567 788 L 567 789 L 569 787 L 570 787 L 571 786 L 571 785 L 570 784 L 571 783 Z" fill="black" stroke="none" /><path d="M 549 780 L 549 781 L 550 781 L 550 780 Z" fill="black" stroke="none" /><path d="M 562 779 Z" fill="black" stroke="none" /><path d="M 282 779 L 280 781 L 279 781 L 279 782 L 280 782 L 281 783 L 282 782 L 283 782 L 283 779 Z" fill="black" stroke="none" /><path d="M 651 775 Z" fill="black" stroke="none" /><path d="M 263 773 Z" fill="black" stroke="none" /><path d="M 584 770 Z" fill="black" stroke="none" /><path d="M 267 769 Z" fill="black" stroke="none" /><path d="M 581 767 Z" fill="black" stroke="none" /><path d="M 497 767 Z" fill="black" stroke="none" /><path d="M 588 763 L 589 763 Z" fill="black" stroke="none" /><path d="M 495 761 L 494 762 Z" fill="black" stroke="none" /><path d="M 98 761 L 97 762 L 97 765 L 99 767 L 101 767 L 102 768 L 103 768 L 105 766 L 105 763 L 104 762 L 104 761 Z" fill="black" stroke="none" /><path d="M 719 758 Z" fill="black" stroke="none" /><path d="M 517 758 L 518 758 Z" fill="black" stroke="none" /><path d="M 327 757 Z" fill="black" stroke="none" /><path d="M 757 756 L 754 759 L 754 760 L 753 761 L 755 763 L 755 764 L 757 766 L 759 766 L 760 765 L 761 766 L 764 763 L 764 759 L 763 758 L 763 757 L 762 756 Z" fill="black" stroke="none" /><path d="M 677 754 Z" fill="black" stroke="none" /><path d="M 537 754 L 536 755 L 535 755 L 535 756 L 536 755 L 537 755 Z" fill="black" stroke="none" /><path d="M 311 746 Z" fill="black" stroke="none" /><path d="M 551 743 L 550 744 L 549 744 L 547 746 L 547 747 L 546 748 L 546 749 L 545 750 L 545 751 L 546 752 L 546 754 L 547 755 L 547 756 L 548 757 L 550 757 L 551 758 L 552 758 L 553 759 L 556 759 L 557 758 L 558 758 L 559 757 L 560 757 L 563 754 L 563 751 L 562 750 L 562 749 L 556 743 Z" fill="black" stroke="none" /><path d="M 286 743 L 284 745 L 283 745 L 283 752 L 286 755 L 287 755 L 288 756 L 292 756 L 296 752 L 296 746 L 294 744 L 293 744 L 292 743 Z" fill="black" stroke="none" /><path d="M 252 742 L 252 743 Z" fill="black" stroke="none" /><path d="M 120 739 L 119 740 L 117 740 L 114 743 L 114 745 L 113 746 L 115 748 L 115 749 L 116 750 L 116 751 L 117 751 L 118 752 L 121 752 L 122 751 L 123 752 L 124 751 L 125 751 L 128 748 L 128 744 L 127 743 L 127 742 L 126 741 L 125 741 L 124 740 L 122 740 L 121 739 Z" fill="black" stroke="none" /><path d="M 713 737 Z" fill="black" stroke="none" /><path d="M 567 735 L 566 736 L 566 737 L 565 738 L 565 740 L 566 741 L 566 742 L 567 743 L 568 743 L 569 744 L 572 744 L 574 742 L 574 741 L 575 740 L 575 739 L 574 738 L 574 737 L 573 736 L 572 736 L 571 735 Z" fill="black" stroke="none" /><path d="M 740 733 L 739 734 L 737 734 L 736 735 L 734 735 L 733 736 L 732 736 L 730 738 L 730 739 L 729 740 L 729 745 L 730 746 L 730 748 L 731 748 L 732 749 L 732 750 L 733 750 L 734 749 L 735 750 L 735 751 L 736 750 L 737 751 L 738 751 L 739 750 L 743 750 L 744 749 L 745 749 L 745 747 L 747 745 L 746 744 L 746 742 L 747 741 L 747 740 L 746 739 L 746 737 L 745 736 L 744 736 L 742 734 L 741 734 Z" fill="black" stroke="none" /><path d="M 185 733 Z" fill="black" stroke="none" /><path d="M 204 731 Z" fill="black" stroke="none" /><path d="M 580 730 L 580 731 Z" fill="black" stroke="none" /><path d="M 176 730 Z" fill="black" stroke="none" /><path d="M 493 727 Z" fill="black" stroke="none" /><path d="M 702 724 Z" fill="black" stroke="none" /><path d="M 659 722 Z" fill="black" stroke="none" /><path d="M 138 715 L 137 716 L 136 716 L 133 719 L 133 720 L 132 721 L 132 727 L 133 728 L 133 729 L 134 730 L 135 730 L 136 731 L 136 732 L 142 732 L 143 733 L 143 732 L 144 731 L 147 731 L 148 730 L 149 731 L 148 730 L 148 729 L 149 728 L 150 728 L 150 725 L 151 724 L 150 723 L 150 720 L 146 716 L 145 716 L 144 715 L 142 715 L 141 716 L 140 716 L 139 715 Z" fill="black" stroke="none" /><path d="M 716 714 L 715 715 L 712 715 L 711 716 L 710 716 L 708 718 L 708 719 L 707 720 L 707 727 L 708 728 L 708 730 L 709 730 L 711 732 L 716 732 L 717 733 L 718 733 L 718 732 L 719 731 L 720 732 L 721 732 L 722 731 L 723 731 L 723 730 L 724 729 L 724 728 L 725 727 L 725 722 L 726 721 L 726 719 L 722 715 L 719 715 L 718 714 Z" fill="black" stroke="none" /><path d="M 724 712 Z" fill="black" stroke="none" /><path d="M 597 707 L 598 707 Z" fill="black" stroke="none" /><path d="M 595 702 Z" fill="black" stroke="none" /><path d="M 599 697 L 599 698 Z" fill="black" stroke="none" /><path d="M 159 695 L 158 696 L 157 696 L 156 697 L 155 697 L 155 698 L 153 700 L 153 706 L 154 707 L 153 708 L 154 709 L 154 710 L 156 712 L 156 713 L 157 713 L 158 712 L 159 713 L 161 713 L 162 714 L 162 716 L 162 715 L 164 713 L 166 713 L 167 712 L 168 713 L 168 712 L 169 711 L 170 712 L 170 713 L 170 712 L 171 711 L 171 709 L 172 708 L 172 705 L 173 704 L 172 703 L 173 702 L 171 700 L 171 699 L 168 696 L 167 696 L 166 695 Z" fill="black" stroke="none" /><path d="M 693 693 L 692 694 L 689 694 L 688 695 L 686 695 L 685 696 L 685 697 L 684 698 L 684 699 L 683 700 L 683 707 L 684 708 L 684 709 L 685 710 L 686 710 L 689 713 L 691 713 L 692 714 L 697 714 L 698 713 L 699 713 L 700 712 L 702 712 L 702 711 L 704 709 L 704 705 L 705 704 L 705 702 L 704 701 L 704 700 L 703 699 L 703 698 L 699 694 L 696 694 L 695 693 Z" fill="black" stroke="none" /><path d="M 256 693 L 256 694 Z" fill="black" stroke="none" /><path d="M 704 679 L 704 680 Z" fill="black" stroke="none" /><path d="M 147 676 L 147 677 Z" fill="black" stroke="none" /><path d="M 104 639 L 104 640 Z" fill="black" stroke="none" /><path d="M 157 624 L 156 625 Z" fill="black" stroke="none" /><path d="M 117 623 Z" fill="black" stroke="none" /><path d="M 146 622 L 146 624 Z" fill="black" stroke="none" /><path d="M 731 620 Z" fill="black" stroke="none" /><path d="M 743 606 L 743 607 Z" fill="black" stroke="none" /><path d="M 102 605 L 101 606 L 102 606 Z" fill="black" stroke="none" /><path d="M 755 603 Z" fill="black" stroke="none" /><path d="M 98 602 Z" fill="black" stroke="none" /><path d="M 750 599 Z" fill="black" stroke="none" /><path d="M 756 598 Z" fill="black" stroke="none" /><path d="M 91 590 L 91 592 L 93 592 L 92 591 L 92 590 Z" fill="black" stroke="none" /><path d="M 713 587 L 712 588 L 711 588 L 710 589 L 710 593 L 711 594 L 711 595 L 713 595 L 714 594 L 715 594 L 716 593 L 716 592 L 717 591 L 717 588 L 716 588 L 715 587 Z" fill="black" stroke="none" /><path d="M 90 580 L 91 580 Z" fill="black" stroke="none" /><path d="M 722 567 L 721 568 L 720 568 L 718 570 L 718 571 L 717 572 L 717 580 L 718 581 L 718 582 L 719 583 L 725 583 L 726 584 L 727 583 L 728 583 L 729 584 L 732 581 L 733 581 L 734 580 L 734 579 L 735 578 L 734 577 L 735 576 L 735 574 L 734 573 L 734 571 L 731 568 L 729 568 L 728 567 Z" fill="black" stroke="none" /><path d="M 725 546 L 724 547 L 723 547 L 721 549 L 721 551 L 722 552 L 722 553 L 723 554 L 730 554 L 731 553 L 731 548 L 729 546 Z" fill="black" stroke="none" /><path d="M 115 519 L 116 519 Z" fill="black" stroke="none" /><path d="M 74 517 Z" fill="black" stroke="none" /><path d="M 122 514 Z" fill="black" stroke="none" /><path d="M 140 513 Z" fill="black" stroke="none" /><path d="M 764 512 Z" fill="black" stroke="none" /><path d="M 776 505 Z" fill="black" stroke="none" /><path d="M 134 504 Z" fill="black" stroke="none" /><path d="M 722 500 Z" fill="black" stroke="none" /><path d="M 57 483 L 57 484 Z" fill="black" stroke="none" /><path d="M 58 466 Z" fill="black" stroke="none" /><path d="M 29 461 Z" fill="black" stroke="none" /><path d="M 31 451 Z" fill="black" stroke="none" /><path d="M 828 449 Z" fill="black" stroke="none" /><path d="M 71 439 Z" fill="black" stroke="none" /><path d="M 42 439 Z" fill="black" stroke="none" /><path d="M 26 439 L 23 442 L 23 444 L 22 445 L 22 446 L 24 448 L 29 448 L 30 447 L 31 447 L 32 446 L 33 447 L 34 446 L 34 443 L 33 442 L 33 441 L 32 440 L 31 440 L 30 439 Z" fill="black" stroke="none" /><path d="M 29 437 Z" fill="black" stroke="none" /><path d="M 815 436 Z" fill="black" stroke="none" /><path d="M 51 435 L 50 436 L 49 436 L 47 438 L 46 437 L 46 438 L 45 439 L 44 439 L 45 440 L 43 442 L 43 443 L 42 444 L 42 451 L 43 452 L 43 453 L 44 454 L 44 455 L 45 455 L 46 456 L 47 456 L 48 457 L 49 457 L 50 458 L 53 458 L 54 459 L 56 459 L 57 458 L 58 458 L 59 457 L 61 457 L 64 454 L 64 452 L 65 451 L 65 448 L 66 447 L 66 444 L 65 443 L 65 440 L 61 436 L 60 436 L 59 435 L 58 436 L 57 436 L 56 435 Z" fill="black" stroke="none" /><path d="M 57 431 Z" fill="black" stroke="none" /><path d="M 825 429 L 824 430 L 822 430 L 821 431 L 821 432 L 820 433 L 820 437 L 821 438 L 820 439 L 821 440 L 821 441 L 822 441 L 823 442 L 827 442 L 828 443 L 829 443 L 830 442 L 830 441 L 831 440 L 831 439 L 832 438 L 833 439 L 833 438 L 834 437 L 834 436 L 833 435 L 833 432 L 832 431 L 832 430 L 831 429 Z" fill="black" stroke="none" /><path d="M 817 428 Z" fill="black" stroke="none" /><path d="M 37 427 Z" fill="black" stroke="none" /><path d="M 797 425 L 796 426 L 794 426 L 793 427 L 792 427 L 791 428 L 790 428 L 788 430 L 788 432 L 787 433 L 787 436 L 786 437 L 786 438 L 787 439 L 787 441 L 788 442 L 788 443 L 789 444 L 789 445 L 790 446 L 791 446 L 792 447 L 793 447 L 794 448 L 795 447 L 796 447 L 797 448 L 804 448 L 808 444 L 809 445 L 810 444 L 809 443 L 811 441 L 811 433 L 810 432 L 810 429 L 809 429 L 808 428 L 808 427 L 807 427 L 806 426 L 804 426 L 803 425 Z" fill="black" stroke="none" /><path d="M 784 424 L 783 425 L 783 426 L 784 426 Z" fill="black" stroke="none" /><path d="M 56 414 Z" fill="black" stroke="none" /><path d="M 785 401 Z" fill="black" stroke="none" /><path d="M 66 400 Z" fill="black" stroke="none" /><path d="M 68 392 L 67 393 Z" fill="black" stroke="none" /><path d="M 73 385 L 73 387 L 74 388 L 75 388 L 75 387 Z" fill="black" stroke="none" /><path d="M 81 384 L 81 385 Z" fill="black" stroke="none" /><path d="M 105 380 L 105 381 Z" fill="black" stroke="none" /><path d="M 780 378 L 781 378 Z" fill="black" stroke="none" /><path d="M 710 377 L 709 378 L 711 378 L 711 377 Z" fill="black" stroke="none" /><path d="M 729 370 L 729 371 L 731 373 L 730 372 L 730 371 Z" fill="black" stroke="none" /><path d="M 95 370 L 95 371 Z" fill="black" stroke="none" /><path d="M 737 368 Z" fill="black" stroke="none" /><path d="M 771 365 Z" fill="black" stroke="none" /><path d="M 89 361 Z" fill="black" stroke="none" /><path d="M 754 351 Z" fill="black" stroke="none" /><path d="M 727 342 Z" fill="black" stroke="none" /><path d="M 83 334 L 83 336 L 84 335 Z" fill="black" stroke="none" /><path d="M 726 333 L 726 335 L 727 336 L 727 337 L 728 337 L 728 336 L 729 335 L 730 336 L 731 335 L 732 335 L 730 335 L 728 333 Z" fill="black" stroke="none" /><path d="M 759 312 Z" fill="black" stroke="none" /><path d="M 769 310 L 770 310 Z" fill="black" stroke="none" /><path d="M 723 308 L 722 309 L 721 309 L 720 310 L 719 310 L 719 311 L 718 312 L 718 313 L 717 314 L 718 315 L 718 318 L 719 319 L 719 320 L 720 321 L 723 321 L 724 322 L 724 323 L 726 323 L 727 322 L 729 322 L 730 321 L 731 321 L 731 320 L 732 319 L 733 319 L 733 318 L 734 317 L 735 318 L 735 316 L 734 315 L 734 312 L 733 311 L 733 310 L 732 310 L 731 309 L 729 309 L 728 308 Z" fill="black" stroke="none" /><path d="M 82 308 L 82 309 Z" fill="black" stroke="none" /><path d="M 775 306 Z" fill="black" stroke="none" /><path d="M 733 306 L 733 307 L 734 306 Z" fill="black" stroke="none" /><path d="M 757 305 L 757 306 Z" fill="black" stroke="none" /><path d="M 86 305 L 85 306 L 85 307 L 84 308 L 85 308 L 85 307 L 86 306 L 87 306 Z" fill="black" stroke="none" /><path d="M 783 303 Z" fill="black" stroke="none" /><path d="M 86 303 L 87 303 Z" fill="black" stroke="none" /><path d="M 761 301 L 761 302 Z" fill="black" stroke="none" /><path d="M 81 301 Z" fill="black" stroke="none" /><path d="M 765 300 Z" fill="black" stroke="none" /><path d="M 729 300 L 729 301 Z" fill="black" stroke="none" /><path d="M 78 298 Z" fill="black" stroke="none" /><path d="M 756 297 L 756 298 L 755 299 L 755 300 L 756 299 L 757 299 L 757 297 Z" fill="black" stroke="none" /><path d="M 762 296 L 762 297 Z" fill="black" stroke="none" /><path d="M 766 295 Z" fill="black" stroke="none" /><path d="M 753 295 Z" fill="black" stroke="none" /><path d="M 770 294 Z" fill="black" stroke="none" /><path d="M 760 294 Z" fill="black" stroke="none" /><path d="M 92 293 L 92 294 L 93 295 L 93 294 Z" fill="black" stroke="none" /><path d="M 751 292 L 750 293 L 750 294 L 750 293 Z" fill="black" stroke="none" /><path d="M 713 292 L 710 295 L 710 299 L 712 301 L 715 301 L 716 300 L 717 300 L 719 298 L 719 293 L 718 292 Z" fill="black" stroke="none" /><path d="M 90 292 L 89 293 Z" fill="black" stroke="none" /><path d="M 84 292 L 84 295 L 85 296 L 87 296 L 85 294 L 85 293 Z" fill="black" stroke="none" /><path d="M 761 290 Z" fill="black" stroke="none" /><path d="M 764 289 Z" fill="black" stroke="none" /><path d="M 750 289 L 751 289 Z" fill="black" stroke="none" /><path d="M 94 289 Z" fill="black" stroke="none" /><path d="M 748 288 L 748 289 Z" fill="black" stroke="none" /><path d="M 686 287 Z" fill="black" stroke="none" /><path d="M 167 287 Z" fill="black" stroke="none" /><path d="M 103 287 Z" fill="black" stroke="none" /><path d="M 99 287 Z" fill="black" stroke="none" /><path d="M 98 285 Z" fill="black" stroke="none" /><path d="M 93 285 Z" fill="black" stroke="none" /><path d="M 87 285 L 88 285 Z" fill="black" stroke="none" /><path d="M 766 284 Z" fill="black" stroke="none" /><path d="M 106 284 L 107 284 Z" fill="black" stroke="none" /><path d="M 745 283 L 746 283 Z" fill="black" stroke="none" /><path d="M 100 283 Z" fill="black" stroke="none" /><path d="M 75 283 L 75 284 L 76 283 Z" fill="black" stroke="none" /><path d="M 104 282 Z" fill="black" stroke="none" /><path d="M 764 280 Z" fill="black" stroke="none" /><path d="M 761 280 L 761 281 Z" fill="black" stroke="none" /><path d="M 745 278 Z" fill="black" stroke="none" /><path d="M 114 278 L 114 279 Z" fill="black" stroke="none" /><path d="M 771 277 Z" fill="black" stroke="none" /><path d="M 101 277 Z" fill="black" stroke="none" /><path d="M 757 276 Z" fill="black" stroke="none" /><path d="M 740 275 L 740 276 Z" fill="black" stroke="none" /><path d="M 97 275 L 98 275 Z" fill="black" stroke="none" /><path d="M 91 273 L 91 275 L 91 274 L 92 273 Z" fill="black" stroke="none" /><path d="M 118 272 Z" fill="black" stroke="none" /><path d="M 786 270 L 786 271 Z" fill="black" stroke="none" /><path d="M 155 268 L 154 269 L 152 269 L 150 271 L 150 272 L 149 273 L 149 277 L 151 279 L 152 279 L 154 281 L 155 280 L 156 281 L 157 280 L 160 280 L 162 278 L 163 278 L 164 277 L 164 273 L 163 272 L 163 271 L 162 271 L 160 269 L 158 269 L 157 268 Z" fill="black" stroke="none" /><path d="M 726 267 Z" fill="black" stroke="none" /><path d="M 692 267 L 692 268 Z" fill="black" stroke="none" /><path d="M 65 267 Z" fill="black" stroke="none" /><path d="M 843 266 Z" fill="black" stroke="none" /><path d="M 776 266 Z" fill="black" stroke="none" /><path d="M 139 266 Z" fill="black" stroke="none" /><path d="M 818 263 Z" fill="black" stroke="none" /><path d="M 67 263 Z" fill="black" stroke="none" /><path d="M 69 260 L 68 261 Z" fill="black" stroke="none" /><path d="M 833 257 Z" fill="black" stroke="none" /><path d="M 821 257 L 822 257 Z" fill="black" stroke="none" /><path d="M 731 257 Z" fill="black" stroke="none" /><path d="M 146 257 L 145 258 L 145 259 L 146 259 Z" fill="black" stroke="none" /><path d="M 40 257 L 39 258 Z" fill="black" stroke="none" /><path d="M 36 256 Z" fill="black" stroke="none" /><path d="M 692 253 L 692 254 Z" fill="black" stroke="none" /><path d="M 122 253 Z" fill="black" stroke="none" /><path d="M 21 253 L 21 254 Z" fill="black" stroke="none" /><path d="M 822 252 Z" fill="black" stroke="none" /><path d="M 764 252 Z" fill="black" stroke="none" /><path d="M 43 252 L 42 253 Z" fill="black" stroke="none" /><path d="M 46 248 Z" fill="black" stroke="none" /><path d="M 790 247 Z" fill="black" stroke="none" /><path d="M 778 245 L 778 246 Z" fill="black" stroke="none" /><path d="M 48 245 Z" fill="black" stroke="none" /><path d="M 49 243 Z" fill="black" stroke="none" /><path d="M 117 242 L 117 243 Z" fill="black" stroke="none" /><path d="M 54 242 Z" fill="black" stroke="none" /><path d="M 15 242 Z" fill="black" stroke="none" /><path d="M 51 240 L 50 241 Z" fill="black" stroke="none" /><path d="M 17 240 Z" fill="black" stroke="none" /><path d="M 63 238 Z" fill="black" stroke="none" /><path d="M 82 237 Z" fill="black" stroke="none" /><path d="M 64 236 L 65 236 Z" fill="black" stroke="none" /><path d="M 56 236 Z" fill="black" stroke="none" /><path d="M 54 234 Z" fill="black" stroke="none" /><path d="M 709 233 Z" fill="black" stroke="none" /><path d="M 36 232 L 36 233 Z" fill="black" stroke="none" /><path d="M 56 231 L 56 232 Z" fill="black" stroke="none" /><path d="M 820 230 Z" fill="black" stroke="none" /><path d="M 58 228 Z" fill="black" stroke="none" /><path d="M 28 227 Z" fill="black" stroke="none" /><path d="M 824 225 Z" fill="black" stroke="none" /><path d="M 717 225 Z" fill="black" stroke="none" /><path d="M 130 224 L 129 225 L 129 226 L 130 225 Z" fill="black" stroke="none" /><path d="M 65 219 Z" fill="black" stroke="none" /><path d="M 809 217 Z" fill="black" stroke="none" /><path d="M 78 217 L 76 219 Z" fill="black" stroke="none" /><path d="M 766 210 Z" fill="black" stroke="none" /><path d="M 44 207 L 42 209 Z" fill="black" stroke="none" /><path d="M 135 205 L 135 206 L 136 206 L 136 205 Z" fill="black" stroke="none" /><path d="M 60 205 L 59 206 L 59 207 L 60 206 Z" fill="black" stroke="none" /><path d="M 46 205 Z" fill="black" stroke="none" /><path d="M 63 203 L 63 204 Z" fill="black" stroke="none" /><path d="M 2 203 Z" fill="black" stroke="none" /><path d="M 839 202 Z" fill="black" stroke="none" /><path d="M 53 202 Z" fill="black" stroke="none" /><path d="M 66 200 Z" fill="black" stroke="none" /><path d="M 99 199 L 100 199 Z" fill="black" stroke="none" /><path d="M 56 199 Z" fill="black" stroke="none" /><path d="M 2 199 Z" fill="black" stroke="none" /><path d="M 796 198 Z" fill="black" stroke="none" /><path d="M 101 197 Z" fill="black" stroke="none" /><path d="M 55 196 Z" fill="black" stroke="none" /><path d="M 93 194 Z" fill="black" stroke="none" /><path d="M 6 193 Z" fill="black" stroke="none" /><path d="M 126 192 Z" fill="black" stroke="none" /><path d="M 113 192 Z" fill="black" stroke="none" /><path d="M 73 192 Z" fill="black" stroke="none" /><path d="M 0 192 Z" fill="black" stroke="none" /><path d="M 168 191 L 168 192 Z" fill="black" stroke="none" /><path d="M 148 191 Z" fill="black" stroke="none" /><path d="M 77 191 Z" fill="black" stroke="none" /><path d="M 15 191 L 15 192 L 14 193 L 15 192 Z" fill="black" stroke="none" /><path d="M 41 190 Z" fill="black" stroke="none" /><path d="M 693 188 Z" fill="black" stroke="none" /><path d="M 171 188 Z" fill="black" stroke="none" /><path d="M 163 188 Z" fill="black" stroke="none" /><path d="M 63 188 Z" fill="black" stroke="none" /><path d="M 166 187 Z" fill="black" stroke="none" /><path d="M 683 185 Z" fill="black" stroke="none" /><path d="M 251 185 L 250 186 L 251 187 L 251 186 L 252 185 Z" fill="black" stroke="none" /><path d="M 162 184 L 162 185 L 161 186 L 162 186 Z" fill="black" stroke="none" /><path d="M 143 184 Z" fill="black" stroke="none" /><path d="M 118 184 Z" fill="black" stroke="none" /><path d="M 765 183 Z" fill="black" stroke="none" /><path d="M 53 183 Z" fill="black" stroke="none" /><path d="M 248 182 Z" fill="black" stroke="none" /><path d="M 10 181 L 9 182 Z" fill="black" stroke="none" /><path d="M 141 180 Z" fill="black" stroke="none" /><path d="M 3 179 Z" fill="black" stroke="none" /><path d="M 143 178 Z" fill="black" stroke="none" /><path d="M 145 176 Z" fill="black" stroke="none" /><path d="M 588 175 L 587 176 Z" fill="black" stroke="none" /><path d="M 246 175 L 246 176 L 245 177 L 246 176 Z" fill="black" stroke="none" /><path d="M 9 174 L 8 175 L 7 175 L 6 176 L 7 175 L 8 175 Z" fill="black" stroke="none" /><path d="M 241 172 L 242 172 Z" fill="black" stroke="none" /><path d="M 70 172 L 68 174 Z" fill="black" stroke="none" /><path d="M 11 171 Z" fill="black" stroke="none" /><path d="M 144 170 Z" fill="black" stroke="none" /><path d="M 13 169 Z" fill="black" stroke="none" /><path d="M 15 168 Z" fill="black" stroke="none" /><path d="M 677 167 Z" fill="black" stroke="none" /><path d="M 591 167 Z" fill="black" stroke="none" /><path d="M 141 167 Z" fill="black" stroke="none" /><path d="M 122 167 Z" fill="black" stroke="none" /><path d="M 109 166 L 108 167 Z" fill="black" stroke="none" /><path d="M 82 166 Z" fill="black" stroke="none" /><path d="M 54 166 Z" fill="black" stroke="none" /><path d="M 116 165 L 114 167 Z" fill="black" stroke="none" /><path d="M 87 165 Z" fill="black" stroke="none" /><path d="M 183 164 L 182 165 Z" fill="black" stroke="none" /><path d="M 113 163 L 112 164 Z" fill="black" stroke="none" /><path d="M 57 163 L 56 164 L 56 165 L 57 164 Z" fill="black" stroke="none" /><path d="M 43 163 Z" fill="black" stroke="none" /><path d="M 90 162 L 89 163 Z" fill="black" stroke="none" /><path d="M 19 162 Z" fill="black" stroke="none" /><path d="M 130 161 Z" fill="black" stroke="none" /><path d="M 157 160 L 156 161 L 155 161 L 154 162 L 152 162 L 151 163 L 150 162 L 150 163 L 148 165 L 147 164 L 146 165 L 146 166 L 144 168 L 143 168 L 144 168 L 145 167 L 146 167 L 147 168 L 147 171 L 146 172 L 147 173 L 147 177 L 148 178 L 147 179 L 148 178 L 151 181 L 152 181 L 153 182 L 155 182 L 156 181 L 157 182 L 160 182 L 161 181 L 162 181 L 164 179 L 165 179 L 166 178 L 167 178 L 168 177 L 168 173 L 169 172 L 169 168 L 168 167 L 168 166 L 166 164 L 166 163 L 165 162 L 165 161 L 164 162 L 163 162 L 161 160 L 160 161 L 158 161 Z" fill="black" stroke="none" /><path d="M 115 160 Z" fill="black" stroke="none" /><path d="M 82 160 Z" fill="black" stroke="none" /><path d="M 63 160 L 63 161 Z" fill="black" stroke="none" /><path d="M 58 158 Z" fill="black" stroke="none" /><path d="M 40 158 Z" fill="black" stroke="none" /><path d="M 609 157 Z" fill="black" stroke="none" /><path d="M 155 157 L 154 158 L 156 158 Z" fill="black" stroke="none" /><path d="M 225 156 Z" fill="black" stroke="none" /><path d="M 152 156 Z" fill="black" stroke="none" /><path d="M 47 156 Z" fill="black" stroke="none" /><path d="M 42 156 Z" fill="black" stroke="none" /><path d="M 240 155 L 240 156 Z" fill="black" stroke="none" /><path d="M 120 155 L 118 157 L 118 158 L 117 159 L 119 157 L 119 156 Z" fill="black" stroke="none" /><path d="M 244 154 Z" fill="black" stroke="none" /><path d="M 69 154 Z" fill="black" stroke="none" /><path d="M 64 154 Z" fill="black" stroke="none" /><path d="M 113 153 Z" fill="black" stroke="none" /><path d="M 161 152 Z" fill="black" stroke="none" /><path d="M 62 152 Z" fill="black" stroke="none" /><path d="M 45 152 L 44 153 L 44 154 L 46 152 Z" fill="black" stroke="none" /><path d="M 15 152 Z" fill="black" stroke="none" /><path d="M 10 152 Z" fill="black" stroke="none" /><path d="M 225 151 Z" fill="black" stroke="none" /><path d="M 191 151 L 190 152 L 190 153 L 189 154 L 189 155 L 188 156 L 188 157 L 187 158 L 187 159 L 185 161 L 187 159 L 187 158 L 188 157 L 188 156 L 190 154 L 190 152 Z" fill="black" stroke="none" /><path d="M 124 151 L 122 153 Z" fill="black" stroke="none" /><path d="M 97 151 L 96 152 Z" fill="black" stroke="none" /><path d="M 64 151 Z" fill="black" stroke="none" /><path d="M 32 151 Z" fill="black" stroke="none" /><path d="M 69 150 L 67 152 Z" fill="black" stroke="none" /><path d="M 235 149 Z" fill="black" stroke="none" /><path d="M 100 147 L 98 149 Z" fill="black" stroke="none" /><path d="M 50 147 L 50 148 L 48 150 L 50 148 L 51 148 L 51 147 Z" fill="black" stroke="none" /><path d="M 602 146 Z" fill="black" stroke="none" /><path d="M 591 146 Z" fill="black" stroke="none" /><path d="M 1 146 L 0 147 L 0 148 L 0 147 Z" fill="black" stroke="none" /><path d="M 208 145 L 208 146 L 205 149 L 205 150 L 203 152 L 203 153 L 203 152 L 205 150 L 205 149 L 208 146 Z" fill="black" stroke="none" /><path d="M 79 145 Z" fill="black" stroke="none" /><path d="M 708 144 Z" fill="black" stroke="none" /><path d="M 679 144 Z" fill="black" stroke="none" /><path d="M 248 144 L 248 145 Z" fill="black" stroke="none" /><path d="M 210 143 Z" fill="black" stroke="none" /><path d="M 103 143 L 102 144 Z" fill="black" stroke="none" /><path d="M 81 143 Z" fill="black" stroke="none" /><path d="M 19 143 Z" fill="black" stroke="none" /><path d="M 477 142 Z" fill="black" stroke="none" /><path d="M 368 142 L 367 143 L 367 145 L 368 145 L 370 143 L 370 142 Z" fill="black" stroke="none" /><path d="M 104 141 L 105 141 Z" fill="black" stroke="none" /><path d="M 6 141 L 5 142 Z" fill="black" stroke="none" /><path d="M 693 140 L 692 141 L 688 141 L 687 142 L 685 142 L 680 147 L 680 148 L 679 149 L 679 155 L 680 156 L 680 160 L 681 160 L 683 162 L 683 163 L 684 163 L 686 165 L 688 165 L 689 166 L 690 166 L 691 167 L 692 166 L 694 166 L 695 165 L 697 165 L 698 164 L 699 165 L 701 163 L 701 162 L 702 161 L 703 161 L 703 160 L 704 159 L 704 157 L 705 156 L 705 154 L 706 153 L 706 151 L 705 150 L 705 147 L 704 146 L 704 145 L 700 141 L 699 142 L 698 141 L 694 141 Z" fill="black" stroke="none" /><path d="M 132 138 L 132 140 L 131 141 L 130 141 L 128 143 L 128 145 L 127 146 L 128 147 L 128 149 L 129 150 L 128 151 L 128 152 L 126 154 L 128 152 L 130 152 L 133 155 L 134 154 L 137 154 L 138 155 L 138 156 L 139 156 L 143 152 L 144 153 L 145 152 L 144 151 L 144 150 L 145 149 L 145 144 L 146 143 L 145 142 L 145 141 L 144 142 L 143 141 L 143 139 L 142 140 L 141 139 L 140 140 L 139 139 L 138 139 L 137 138 L 136 138 L 135 139 L 133 139 Z" fill="black" stroke="none" /><path d="M 150 137 Z" fill="black" stroke="none" /><path d="M 704 136 Z" fill="black" stroke="none" /><path d="M 632 136 Z" fill="black" stroke="none" /><path d="M 694 135 Z" fill="black" stroke="none" /><path d="M 355 135 Z" fill="black" stroke="none" /><path d="M 83 135 Z" fill="black" stroke="none" /><path d="M 0 135 Z" fill="black" stroke="none" /><path d="M 110 134 L 110 135 L 109 136 L 109 137 L 110 136 Z" fill="black" stroke="none" /><path d="M 24 134 Z" fill="black" stroke="none" /><path d="M 13 134 L 12 135 L 12 136 L 12 135 Z" fill="black" stroke="none" /><path d="M 354 133 L 353 134 Z" fill="black" stroke="none" /><path d="M 135 132 L 134 133 L 134 134 L 135 133 Z" fill="black" stroke="none" /><path d="M 248 131 L 250 133 L 251 132 L 250 131 L 249 132 Z" fill="black" stroke="none" /><path d="M 220 131 L 219 132 L 219 133 L 219 132 Z" fill="black" stroke="none" /><path d="M 145 131 Z" fill="black" stroke="none" /><path d="M 97 131 Z" fill="black" stroke="none" /><path d="M 37 131 L 37 132 Z" fill="black" stroke="none" /><path d="M 141 130 Z" fill="black" stroke="none" /><path d="M 17 130 L 15 132 L 15 133 L 15 132 Z" fill="black" stroke="none" /><path d="M 151 129 Z" fill="black" stroke="none" /><path d="M 84 127 L 83 128 Z" fill="black" stroke="none" /><path d="M 585 126 L 585 127 Z" fill="black" stroke="none" /><path d="M 90 126 L 88 128 Z" fill="black" stroke="none" /><path d="M 151 124 L 150 125 L 151 125 Z" fill="black" stroke="none" /><path d="M 108 124 Z" fill="black" stroke="none" /><path d="M 104 123 Z" fill="black" stroke="none" /><path d="M 113 122 Z" fill="black" stroke="none" /><path d="M 188 121 Z" fill="black" stroke="none" /><path d="M 143 121 Z" fill="black" stroke="none" /><path d="M 118 121 L 117 122 L 116 122 L 115 123 L 115 124 L 114 125 L 114 129 L 115 130 L 115 132 L 117 132 L 118 133 L 119 132 L 124 132 L 124 131 L 125 130 L 125 128 L 126 127 L 126 126 L 127 125 L 126 124 L 126 122 L 124 122 L 123 121 Z" fill="black" stroke="none" /><path d="M 61 121 Z" fill="black" stroke="none" /><path d="M 54 121 Z" fill="black" stroke="none" /><path d="M 262 120 Z" fill="black" stroke="none" /><path d="M 256 120 L 256 121 Z" fill="black" stroke="none" /><path d="M 140 120 Z" fill="black" stroke="none" /><path d="M 68 120 Z" fill="black" stroke="none" /><path d="M 1 120 L 0 121 Z" fill="black" stroke="none" /><path d="M 495 119 Z" fill="black" stroke="none" /><path d="M 112 119 L 110 121 L 110 122 L 111 121 L 111 120 Z" fill="black" stroke="none" /><path d="M 8 119 Z" fill="black" stroke="none" /><path d="M 704 118 Z" fill="black" stroke="none" /><path d="M 261 118 Z" fill="black" stroke="none" /><path d="M 163 118 Z" fill="black" stroke="none" /><path d="M 97 118 L 96 119 Z" fill="black" stroke="none" /><path d="M 713 117 L 712 118 L 710 118 L 709 119 L 708 119 L 708 120 L 707 121 L 706 121 L 706 122 L 705 123 L 705 124 L 704 125 L 705 126 L 705 129 L 706 130 L 706 132 L 711 137 L 712 137 L 713 136 L 716 136 L 717 135 L 721 135 L 724 132 L 724 131 L 725 130 L 725 128 L 726 127 L 725 126 L 725 123 L 724 122 L 724 121 L 721 118 L 720 118 L 719 117 Z" fill="black" stroke="none" /><path d="M 137 117 Z" fill="black" stroke="none" /><path d="M 106 117 Z" fill="black" stroke="none" /><path d="M 0 117 Z" fill="black" stroke="none" /><path d="M 328 116 L 329 116 Z" fill="black" stroke="none" /><path d="M 232 116 L 231 117 Z" fill="black" stroke="none" /><path d="M 129 116 Z" fill="black" stroke="none" /><path d="M 269 115 Z" fill="black" stroke="none" /><path d="M 266 115 Z" fill="black" stroke="none" /><path d="M 120 115 L 119 116 Z" fill="black" stroke="none" /><path d="M 111 115 L 111 116 L 110 117 L 110 118 L 110 117 L 111 116 Z" fill="black" stroke="none" /><path d="M 107 115 Z" fill="black" stroke="none" /><path d="M 72 115 Z" fill="black" stroke="none" /><path d="M 587 114 L 587 115 Z" fill="black" stroke="none" /><path d="M 258 114 Z" fill="black" stroke="none" /><path d="M 7 114 Z" fill="black" stroke="none" /><path d="M 0 114 Z" fill="black" stroke="none" /><path d="M 42 113 L 41 114 Z" fill="black" stroke="none" /><path d="M 4 113 L 2 115 L 3 115 L 3 114 Z" fill="black" stroke="none" /><path d="M 508 112 L 508 113 Z" fill="black" stroke="none" /><path d="M 264 112 L 263 113 L 262 113 L 264 113 Z" fill="black" stroke="none" /><path d="M 112 112 L 113 112 Z" fill="black" stroke="none" /><path d="M 110 112 Z" fill="black" stroke="none" /><path d="M 20 112 Z" fill="black" stroke="none" /><path d="M 1 112 Z" fill="black" stroke="none" /><path d="M 77 111 L 76 112 Z" fill="black" stroke="none" /><path d="M 8 111 Z" fill="black" stroke="none" /><path d="M 496 110 Z" fill="black" stroke="none" /><path d="M 268 110 L 268 111 Z" fill="black" stroke="none" /><path d="M 13 110 L 12 111 Z" fill="black" stroke="none" /><path d="M 722 109 Z" fill="black" stroke="none" /><path d="M 607 109 Z" fill="black" stroke="none" /><path d="M 571 109 Z" fill="black" stroke="none" /><path d="M 109 109 L 108 110 L 107 110 L 104 113 L 104 114 Z" fill="black" stroke="none" /><path d="M 10 109 Z" fill="black" stroke="none" /><path d="M 0 109 Z" fill="black" stroke="none" /><path d="M 19 108 Z" fill="black" stroke="none" /><path d="M 110 107 Z" fill="black" stroke="none" /><path d="M 15 107 Z" fill="black" stroke="none" /><path d="M 562 106 L 563 106 Z" fill="black" stroke="none" /><path d="M 557 106 Z" fill="black" stroke="none" /><path d="M 350 106 L 350 109 Z" fill="black" stroke="none" /><path d="M 294 106 L 294 107 L 295 106 Z" fill="black" stroke="none" /><path d="M 280 106 L 280 107 L 281 108 L 283 108 L 281 106 Z" fill="black" stroke="none" /><path d="M 268 106 L 268 107 Z" fill="black" stroke="none" /><path d="M 113 106 Z" fill="black" stroke="none" /><path d="M 533 105 Z" fill="black" stroke="none" /><path d="M 266 105 Z" fill="black" stroke="none" /><path d="M 262 105 L 262 106 L 263 106 L 263 105 Z" fill="black" stroke="none" /><path d="M 109 105 Z" fill="black" stroke="none" /><path d="M 26 105 Z" fill="black" stroke="none" /><path d="M 22 105 Z" fill="black" stroke="none" /><path d="M 643 104 Z" fill="black" stroke="none" /><path d="M 568 104 Z" fill="black" stroke="none" /><path d="M 554 104 Z" fill="black" stroke="none" /><path d="M 539 104 Z" fill="black" stroke="none" /><path d="M 516 104 Z" fill="black" stroke="none" /><path d="M 279 104 L 280 104 Z" fill="black" stroke="none" /><path d="M 171 104 Z" fill="black" stroke="none" /><path d="M 111 104 Z" fill="black" stroke="none" /><path d="M 14 104 Z" fill="black" stroke="none" /><path d="M 10 104 L 7 107 L 8 107 L 8 106 Z" fill="black" stroke="none" /><path d="M 510 103 Z" fill="black" stroke="none" /><path d="M 329 103 Z" fill="black" stroke="none" /><path d="M 312 103 Z" fill="black" stroke="none" /><path d="M 308 103 L 309 103 Z" fill="black" stroke="none" /><path d="M 291 103 Z" fill="black" stroke="none" /><path d="M 287 103 L 288 103 Z" fill="black" stroke="none" /><path d="M 303 102 Z" fill="black" stroke="none" /><path d="M 158 102 L 158 103 L 157 104 L 156 104 L 157 104 L 158 103 Z" fill="black" stroke="none" /><path d="M 3 102 L 1 104 Z" fill="black" stroke="none" /><path d="M 559 101 L 559 102 L 560 102 L 560 101 Z" fill="black" stroke="none" /><path d="M 551 101 L 551 102 Z" fill="black" stroke="none" /><path d="M 297 101 L 297 102 L 296 103 L 297 102 Z" fill="black" stroke="none" /><path d="M 15 100 Z" fill="black" stroke="none" /><path d="M 6 100 L 5 101 Z" fill="black" stroke="none" /><path d="M 564 99 L 563 100 L 563 101 L 563 100 Z" fill="black" stroke="none" /><path d="M 283 99 Z" fill="black" stroke="none" /><path d="M 279 99 L 278 100 L 278 102 L 279 101 Z" fill="black" stroke="none" /><path d="M 262 99 L 261 100 L 262 99 L 263 100 L 264 100 L 263 100 Z" fill="black" stroke="none" /><path d="M 207 99 Z" fill="black" stroke="none" /><path d="M 115 99 Z" fill="black" stroke="none" /><path d="M 19 99 Z" fill="black" stroke="none" /><path d="M 2 99 Z" fill="black" stroke="none" /><path d="M 733 98 L 732 99 L 731 99 L 729 101 L 729 109 L 731 111 L 736 111 L 737 110 L 739 110 L 741 108 L 742 108 L 742 107 L 743 106 L 743 103 L 740 100 L 740 99 L 739 99 L 738 98 Z" fill="black" stroke="none" /><path d="M 493 98 L 493 99 L 494 98 Z" fill="black" stroke="none" /><path d="M 31 98 Z" fill="black" stroke="none" /><path d="M 15 98 Z" fill="black" stroke="none" /><path d="M 190 97 Z" fill="black" stroke="none" /><path d="M 178 97 L 177 98 Z" fill="black" stroke="none" /><path d="M 5 97 Z" fill="black" stroke="none" /><path d="M 544 96 L 544 97 Z" fill="black" stroke="none" /><path d="M 91 96 L 89 98 L 89 101 L 90 101 L 91 102 L 92 101 L 93 102 L 93 104 L 92 105 L 92 106 L 94 104 L 95 104 L 96 105 L 95 106 L 96 107 L 97 106 L 98 107 L 98 109 L 99 109 L 101 111 L 101 112 L 100 113 L 101 113 L 103 111 L 103 108 L 102 108 L 101 107 L 102 106 L 102 105 L 103 104 L 103 102 L 100 105 L 99 104 L 99 103 L 100 102 L 100 101 L 101 100 L 100 99 L 100 100 L 98 102 L 97 101 L 97 100 L 98 99 L 98 98 L 97 98 L 96 97 L 95 98 L 94 97 L 93 97 L 92 96 Z" fill="black" stroke="none" /><path d="M 85 96 L 85 97 Z" fill="black" stroke="none" /><path d="M 49 96 Z" fill="black" stroke="none" /><path d="M 29 96 Z" fill="black" stroke="none" /><path d="M 17 96 Z" fill="black" stroke="none" /><path d="M 11 96 Z" fill="black" stroke="none" /><path d="M 298 95 L 298 96 Z" fill="black" stroke="none" /><path d="M 105 95 Z" fill="black" stroke="none" /><path d="M 569 94 L 569 95 Z" fill="black" stroke="none" /><path d="M 292 94 Z" fill="black" stroke="none" /><path d="M 8 94 Z" fill="black" stroke="none" /><path d="M 212 93 Z" fill="black" stroke="none" /><path d="M 758 92 L 758 93 Z" fill="black" stroke="none" /><path d="M 55 92 Z" fill="black" stroke="none" /><path d="M 10 92 Z" fill="black" stroke="none" /><path d="M 556 91 L 555 92 L 554 92 L 553 93 L 553 98 L 554 98 L 555 97 L 557 97 L 558 96 L 559 97 L 559 98 L 560 99 L 560 98 L 561 97 L 561 95 L 560 95 L 559 94 L 560 93 L 559 92 L 559 91 Z" fill="black" stroke="none" /><path d="M 214 91 Z" fill="black" stroke="none" /><path d="M 550 90 Z" fill="black" stroke="none" /><path d="M 525 90 Z" fill="black" stroke="none" /><path d="M 57 90 Z" fill="black" stroke="none" /><path d="M 744 89 Z" fill="black" stroke="none" /><path d="M 359 89 Z" fill="black" stroke="none" /><path d="M 287 89 Z" fill="black" stroke="none" /><path d="M 271 89 Z" fill="black" stroke="none" /><path d="M 269 89 Z" fill="black" stroke="none" /><path d="M 266 89 Z" fill="black" stroke="none" /><path d="M 100 89 L 100 90 Z" fill="black" stroke="none" /><path d="M 42 89 Z" fill="black" stroke="none" /><path d="M 305 88 L 305 89 Z" fill="black" stroke="none" /><path d="M 62 88 L 61 89 Z" fill="black" stroke="none" /><path d="M 9 88 Z" fill="black" stroke="none" /><path d="M 349 87 L 349 88 L 350 88 L 350 87 Z" fill="black" stroke="none" /><path d="M 102 87 L 102 88 Z" fill="black" stroke="none" /><path d="M 56 87 Z" fill="black" stroke="none" /><path d="M 16 86 Z" fill="black" stroke="none" /><path d="M 571 85 Z" fill="black" stroke="none" /><path d="M 57 85 Z" fill="black" stroke="none" /><path d="M 491 84 L 491 85 Z" fill="black" stroke="none" /><path d="M 151 84 Z" fill="black" stroke="none" /><path d="M 94 83 L 93 84 Z" fill="black" stroke="none" /><path d="M 66 83 L 67 83 Z" fill="black" stroke="none" /><path d="M 62 83 L 63 83 Z" fill="black" stroke="none" /><path d="M 11 83 Z" fill="black" stroke="none" /><path d="M 3 83 L 2 84 L 1 84 L 0 85 L 1 85 L 3 83 L 4 83 Z" fill="black" stroke="none" /><path d="M 753 82 L 752 83 L 752 87 L 753 88 L 753 90 L 754 91 L 755 91 L 755 90 L 756 89 L 757 89 L 759 87 L 761 87 L 761 85 L 760 84 L 760 83 L 759 82 Z" fill="black" stroke="none" /><path d="M 562 82 L 562 83 Z" fill="black" stroke="none" /><path d="M 551 82 L 551 83 Z" fill="black" stroke="none" /><path d="M 382 82 Z" fill="black" stroke="none" /><path d="M 30 82 Z" fill="black" stroke="none" /><path d="M 273 81 L 274 81 Z" fill="black" stroke="none" /><path d="M 64 81 Z" fill="black" stroke="none" /><path d="M 368 80 L 368 82 Z" fill="black" stroke="none" /><path d="M 278 80 Z" fill="black" stroke="none" /><path d="M 227 80 Z" fill="black" stroke="none" /><path d="M 135 80 Z" fill="black" stroke="none" /><path d="M 0 80 L 0 81 Z" fill="black" stroke="none" /><path d="M 448 79 Z" fill="black" stroke="none" /><path d="M 270 79 L 271 79 Z" fill="black" stroke="none" /><path d="M 78 79 Z" fill="black" stroke="none" /><path d="M 21 79 L 20 80 Z" fill="black" stroke="none" /><path d="M 8 79 L 9 79 Z" fill="black" stroke="none" /><path d="M 11 78 Z" fill="black" stroke="none" /><path d="M 446 77 Z" fill="black" stroke="none" /><path d="M 13 77 Z" fill="black" stroke="none" /><path d="M 0 77 Z" fill="black" stroke="none" /><path d="M 474 76 Z" fill="black" stroke="none" /><path d="M 72 76 L 72 77 L 71 78 L 71 79 L 70 80 L 73 77 L 73 76 Z" fill="black" stroke="none" /><path d="M 3 75 Z" fill="black" stroke="none" /><path d="M 39 74 Z" fill="black" stroke="none" /><path d="M 37 74 Z" fill="black" stroke="none" /><path d="M 16 74 Z" fill="black" stroke="none" /><path d="M 557 73 Z" fill="black" stroke="none" /><path d="M 383 73 Z" fill="black" stroke="none" /><path d="M 68 73 Z" fill="black" stroke="none" /><path d="M 349 72 Z" fill="black" stroke="none" /><path d="M 92 72 Z" fill="black" stroke="none" /><path d="M 266 71 L 266 72 L 267 72 L 267 71 Z" fill="black" stroke="none" /><path d="M 99 71 Z" fill="black" stroke="none" /><path d="M 11 71 L 10 72 L 9 72 L 10 72 Z" fill="black" stroke="none" /><path d="M 409 69 Z" fill="black" stroke="none" /><path d="M 44 69 Z" fill="black" stroke="none" /><path d="M 3 68 L 2 69 L 1 69 L 1 70 L 0 71 L 3 68 L 4 68 Z" fill="black" stroke="none" /><path d="M 391 67 L 390 68 L 389 68 L 386 71 L 386 73 L 385 74 L 385 75 L 386 76 L 386 78 L 389 81 L 390 81 L 392 83 L 394 83 L 398 87 L 398 88 L 401 91 L 401 92 L 402 93 L 403 93 L 404 94 L 404 96 L 406 98 L 406 99 L 408 101 L 408 102 L 410 104 L 410 105 L 411 106 L 411 108 L 412 109 L 412 110 L 411 111 L 409 109 L 409 108 L 408 107 L 408 106 L 404 102 L 404 100 L 401 100 L 399 98 L 399 97 L 398 97 L 396 95 L 395 95 L 394 94 L 393 94 L 391 92 L 389 92 L 388 91 L 386 91 L 385 90 L 380 90 L 379 89 L 378 90 L 376 90 L 375 89 L 374 89 L 373 90 L 371 90 L 370 89 L 369 89 L 368 90 L 367 90 L 365 92 L 364 92 L 363 91 L 363 92 L 361 94 L 360 94 L 355 99 L 355 100 L 354 101 L 354 103 L 353 104 L 353 109 L 352 110 L 352 116 L 353 117 L 353 119 L 354 120 L 354 122 L 355 123 L 355 127 L 358 130 L 358 132 L 359 133 L 359 134 L 358 135 L 358 136 L 359 135 L 360 135 L 361 134 L 362 135 L 363 135 L 364 136 L 364 137 L 366 137 L 367 138 L 368 138 L 369 139 L 375 139 L 376 140 L 376 141 L 370 147 L 367 147 L 363 151 L 362 151 L 361 152 L 360 152 L 360 153 L 359 154 L 358 154 L 356 156 L 355 156 L 354 155 L 354 152 L 355 151 L 355 147 L 354 147 L 353 146 L 353 145 L 351 143 L 351 141 L 349 141 L 348 140 L 348 138 L 345 135 L 345 134 L 342 131 L 341 131 L 339 129 L 340 128 L 339 127 L 339 126 L 338 126 L 336 124 L 335 125 L 332 122 L 333 121 L 332 121 L 330 119 L 329 119 L 328 118 L 327 118 L 326 117 L 325 117 L 324 116 L 323 116 L 322 115 L 320 115 L 319 114 L 318 114 L 316 112 L 313 112 L 312 111 L 307 111 L 306 110 L 304 110 L 303 109 L 303 108 L 301 110 L 300 110 L 299 109 L 298 109 L 297 110 L 290 110 L 289 111 L 288 111 L 287 110 L 285 112 L 284 111 L 284 112 L 283 113 L 282 112 L 281 113 L 280 113 L 279 112 L 280 111 L 279 110 L 279 109 L 278 110 L 277 110 L 276 109 L 276 108 L 275 108 L 274 107 L 273 108 L 272 107 L 272 105 L 273 104 L 274 104 L 275 103 L 275 102 L 276 101 L 275 102 L 274 101 L 274 100 L 275 99 L 275 98 L 273 96 L 272 97 L 270 95 L 269 96 L 268 95 L 266 97 L 266 98 L 267 99 L 266 100 L 266 101 L 268 103 L 268 104 L 270 104 L 271 105 L 270 106 L 270 107 L 271 108 L 271 109 L 273 109 L 274 110 L 277 110 L 278 111 L 278 113 L 277 114 L 276 113 L 276 114 L 275 115 L 274 114 L 272 116 L 271 115 L 271 114 L 272 113 L 271 112 L 271 111 L 270 111 L 270 113 L 271 114 L 271 115 L 272 116 L 271 117 L 270 117 L 268 119 L 267 119 L 262 124 L 261 124 L 262 125 L 260 127 L 259 127 L 257 129 L 257 131 L 256 132 L 255 132 L 255 135 L 254 136 L 253 136 L 252 137 L 252 138 L 253 139 L 252 140 L 252 142 L 250 144 L 251 144 L 252 145 L 251 146 L 251 148 L 250 149 L 250 151 L 248 153 L 248 154 L 249 154 L 250 155 L 249 156 L 249 158 L 248 159 L 248 161 L 249 162 L 249 165 L 250 166 L 250 168 L 249 169 L 249 170 L 251 172 L 251 173 L 250 174 L 251 175 L 251 176 L 252 177 L 251 178 L 251 179 L 252 179 L 253 180 L 253 182 L 254 183 L 254 184 L 255 185 L 255 187 L 254 188 L 255 189 L 255 191 L 254 192 L 253 192 L 252 193 L 252 194 L 255 191 L 258 191 L 259 192 L 260 192 L 261 193 L 262 193 L 264 195 L 264 196 L 265 196 L 266 195 L 269 195 L 270 196 L 271 195 L 272 196 L 272 197 L 274 199 L 273 200 L 266 200 L 265 199 L 264 200 L 263 199 L 263 198 L 262 199 L 257 199 L 256 198 L 256 197 L 257 196 L 257 195 L 256 196 L 256 197 L 254 199 L 253 198 L 251 198 L 250 199 L 249 198 L 248 198 L 247 197 L 246 197 L 244 199 L 240 199 L 238 197 L 240 195 L 240 194 L 242 192 L 242 190 L 243 189 L 242 188 L 242 183 L 241 182 L 241 181 L 240 180 L 240 178 L 239 177 L 239 176 L 238 176 L 237 175 L 237 173 L 233 169 L 233 168 L 232 167 L 231 167 L 230 166 L 230 165 L 228 165 L 224 161 L 223 161 L 222 160 L 222 159 L 220 159 L 219 158 L 217 158 L 216 157 L 213 157 L 212 156 L 212 155 L 210 157 L 209 157 L 208 156 L 204 156 L 203 157 L 202 157 L 201 156 L 199 158 L 198 157 L 196 157 L 193 160 L 192 160 L 191 161 L 190 161 L 182 169 L 181 169 L 180 170 L 180 171 L 179 172 L 178 172 L 179 173 L 178 174 L 178 175 L 177 176 L 177 178 L 176 179 L 176 182 L 175 183 L 176 184 L 175 185 L 175 190 L 176 191 L 176 192 L 175 193 L 176 193 L 177 194 L 177 197 L 176 198 L 175 198 L 174 197 L 173 197 L 172 196 L 169 196 L 168 195 L 166 195 L 165 196 L 164 195 L 160 195 L 159 196 L 157 196 L 155 198 L 154 198 L 151 201 L 148 201 L 148 202 L 147 203 L 146 203 L 147 204 L 143 208 L 142 208 L 142 211 L 140 213 L 140 215 L 138 217 L 138 219 L 139 220 L 139 221 L 138 222 L 138 223 L 137 224 L 137 225 L 138 226 L 138 239 L 139 240 L 139 243 L 140 243 L 141 244 L 140 245 L 140 246 L 141 246 L 142 247 L 142 248 L 143 249 L 143 250 L 146 253 L 146 254 L 148 254 L 150 256 L 150 257 L 151 258 L 153 258 L 155 260 L 156 259 L 157 260 L 157 261 L 158 261 L 159 260 L 160 261 L 162 261 L 163 262 L 166 262 L 167 261 L 172 261 L 173 262 L 173 266 L 172 267 L 172 268 L 171 269 L 171 271 L 170 272 L 170 279 L 169 280 L 169 292 L 168 293 L 166 293 L 161 288 L 160 288 L 158 286 L 157 286 L 156 285 L 155 285 L 153 283 L 151 283 L 150 282 L 149 282 L 147 280 L 145 280 L 144 279 L 139 279 L 138 278 L 136 278 L 135 277 L 134 277 L 133 278 L 125 278 L 124 279 L 123 279 L 122 278 L 121 278 L 121 279 L 120 280 L 119 279 L 117 281 L 116 281 L 114 283 L 112 283 L 111 284 L 109 284 L 109 285 L 108 286 L 107 286 L 103 290 L 102 290 L 102 291 L 100 293 L 99 292 L 99 290 L 99 292 L 97 294 L 97 295 L 95 297 L 95 298 L 94 299 L 95 300 L 94 301 L 94 304 L 93 305 L 93 306 L 91 308 L 90 308 L 89 309 L 88 309 L 88 310 L 87 311 L 87 312 L 87 311 L 90 308 L 91 309 L 91 311 L 90 312 L 90 313 L 88 315 L 87 315 L 86 316 L 87 317 L 87 316 L 89 314 L 90 315 L 90 316 L 89 317 L 89 319 L 88 320 L 86 320 L 86 321 L 87 321 L 88 322 L 88 333 L 87 334 L 87 335 L 88 335 L 89 336 L 89 345 L 90 345 L 91 346 L 91 348 L 92 349 L 91 350 L 93 352 L 93 355 L 94 355 L 95 356 L 95 358 L 97 360 L 97 361 L 98 361 L 99 362 L 99 364 L 100 364 L 101 365 L 101 367 L 102 367 L 103 368 L 103 369 L 102 370 L 102 371 L 103 370 L 105 370 L 108 373 L 108 374 L 109 375 L 109 376 L 110 376 L 111 375 L 112 375 L 113 376 L 113 378 L 114 379 L 116 379 L 117 380 L 117 381 L 118 380 L 119 380 L 120 381 L 121 381 L 123 383 L 126 383 L 128 385 L 130 385 L 131 384 L 132 385 L 133 385 L 134 384 L 135 385 L 136 384 L 137 384 L 138 385 L 138 386 L 135 389 L 135 390 L 132 393 L 132 394 L 131 395 L 130 394 L 130 396 L 129 397 L 127 397 L 125 395 L 125 394 L 124 394 L 123 393 L 123 392 L 122 391 L 122 390 L 121 389 L 120 389 L 118 387 L 117 387 L 116 386 L 115 386 L 113 384 L 106 384 L 105 383 L 96 383 L 95 384 L 93 384 L 92 385 L 88 385 L 86 387 L 85 387 L 84 388 L 83 388 L 77 394 L 75 394 L 76 395 L 76 396 L 75 397 L 75 398 L 74 399 L 74 400 L 73 401 L 73 406 L 72 407 L 73 408 L 73 411 L 74 412 L 74 413 L 72 415 L 73 415 L 74 416 L 74 417 L 75 418 L 75 420 L 77 422 L 77 424 L 78 425 L 78 426 L 77 427 L 76 426 L 74 426 L 73 427 L 71 425 L 72 424 L 73 424 L 73 423 L 72 422 L 72 420 L 70 418 L 70 417 L 69 417 L 67 415 L 64 415 L 62 417 L 61 417 L 61 418 L 59 420 L 59 423 L 60 424 L 60 425 L 63 428 L 65 428 L 66 427 L 67 427 L 68 426 L 72 426 L 73 427 L 73 429 L 72 430 L 72 433 L 73 434 L 73 435 L 75 435 L 76 436 L 76 437 L 77 437 L 78 438 L 78 439 L 79 439 L 80 440 L 80 443 L 81 443 L 82 442 L 83 442 L 84 443 L 85 443 L 86 444 L 86 445 L 89 445 L 90 446 L 93 446 L 94 447 L 95 447 L 96 446 L 97 447 L 98 447 L 99 448 L 99 449 L 100 448 L 102 448 L 103 449 L 101 451 L 98 451 L 97 452 L 95 452 L 94 453 L 93 453 L 92 454 L 90 454 L 88 456 L 87 456 L 86 457 L 85 457 L 76 466 L 75 466 L 74 467 L 73 466 L 72 466 L 71 467 L 69 467 L 68 468 L 66 468 L 65 469 L 65 470 L 64 471 L 64 475 L 66 477 L 72 477 L 73 476 L 74 476 L 75 475 L 76 475 L 77 476 L 77 477 L 76 478 L 76 479 L 75 480 L 75 481 L 74 482 L 74 483 L 73 484 L 74 485 L 74 491 L 75 492 L 75 493 L 73 495 L 73 496 L 74 495 L 76 497 L 75 498 L 76 499 L 76 501 L 78 501 L 79 502 L 79 503 L 81 505 L 81 506 L 82 506 L 83 507 L 83 508 L 84 509 L 85 509 L 86 510 L 86 511 L 87 511 L 88 510 L 89 511 L 89 513 L 91 513 L 92 514 L 94 514 L 95 515 L 96 515 L 97 516 L 98 515 L 100 515 L 101 516 L 102 516 L 103 515 L 104 515 L 105 516 L 106 516 L 107 515 L 108 515 L 109 516 L 110 516 L 111 515 L 114 515 L 115 514 L 117 514 L 119 512 L 120 512 L 122 510 L 123 510 L 125 508 L 126 508 L 128 506 L 128 504 L 131 501 L 130 500 L 130 497 L 131 496 L 133 498 L 133 499 L 136 502 L 136 503 L 137 504 L 138 504 L 139 505 L 139 507 L 141 507 L 142 508 L 142 510 L 145 510 L 146 511 L 146 513 L 148 513 L 149 514 L 149 515 L 153 515 L 155 517 L 155 518 L 154 519 L 152 519 L 151 520 L 149 520 L 144 515 L 142 515 L 141 516 L 140 516 L 139 515 L 138 516 L 135 516 L 134 515 L 133 515 L 132 516 L 131 516 L 130 517 L 129 516 L 127 518 L 126 518 L 125 519 L 123 519 L 121 521 L 120 521 L 119 522 L 118 522 L 116 524 L 115 524 L 114 525 L 113 525 L 112 526 L 112 527 L 109 530 L 108 530 L 106 532 L 106 533 L 104 535 L 103 535 L 103 537 L 101 539 L 100 539 L 101 540 L 98 543 L 98 545 L 97 546 L 97 547 L 96 548 L 96 551 L 95 552 L 95 556 L 94 557 L 94 558 L 93 559 L 92 559 L 93 560 L 93 562 L 92 563 L 93 564 L 92 565 L 92 567 L 93 568 L 92 569 L 92 571 L 93 572 L 93 573 L 92 574 L 92 575 L 94 577 L 94 578 L 93 579 L 94 580 L 94 582 L 93 583 L 95 585 L 95 586 L 94 587 L 95 587 L 96 588 L 96 590 L 98 592 L 97 593 L 98 593 L 99 594 L 99 596 L 100 596 L 101 597 L 101 598 L 102 599 L 102 601 L 107 606 L 107 607 L 108 607 L 110 609 L 110 610 L 112 612 L 112 613 L 113 612 L 114 612 L 116 614 L 118 614 L 119 615 L 118 616 L 119 616 L 120 617 L 122 617 L 123 618 L 124 617 L 125 618 L 128 618 L 129 619 L 129 620 L 131 620 L 132 619 L 133 620 L 136 620 L 137 621 L 142 621 L 143 620 L 144 621 L 145 620 L 147 620 L 148 619 L 149 620 L 152 620 L 153 619 L 155 619 L 158 616 L 159 617 L 160 617 L 162 619 L 162 620 L 163 619 L 164 619 L 165 618 L 167 618 L 168 617 L 171 617 L 171 615 L 172 614 L 172 612 L 173 611 L 173 607 L 174 606 L 174 604 L 175 603 L 176 603 L 177 602 L 178 603 L 178 604 L 177 605 L 177 611 L 178 612 L 178 624 L 177 625 L 169 625 L 168 626 L 164 626 L 162 628 L 161 628 L 160 629 L 159 629 L 156 632 L 155 632 L 151 636 L 151 637 L 149 639 L 149 641 L 148 642 L 148 643 L 147 644 L 147 646 L 146 647 L 146 648 L 145 649 L 146 650 L 146 667 L 147 668 L 147 671 L 148 672 L 148 673 L 150 675 L 150 676 L 151 677 L 151 678 L 152 678 L 153 679 L 153 680 L 154 681 L 154 682 L 155 681 L 158 684 L 159 684 L 160 685 L 160 686 L 162 686 L 163 687 L 166 687 L 168 689 L 169 688 L 174 688 L 175 687 L 176 688 L 177 687 L 180 687 L 181 686 L 182 687 L 182 691 L 181 692 L 181 699 L 180 700 L 181 701 L 181 707 L 182 708 L 182 709 L 183 710 L 183 711 L 185 713 L 185 714 L 186 714 L 187 715 L 187 716 L 188 717 L 189 717 L 190 718 L 191 718 L 192 719 L 191 720 L 193 720 L 194 721 L 194 722 L 198 722 L 199 723 L 198 724 L 199 723 L 201 723 L 202 724 L 203 724 L 204 725 L 211 725 L 212 726 L 213 726 L 216 723 L 217 724 L 217 726 L 218 725 L 220 725 L 221 724 L 224 724 L 225 723 L 229 723 L 232 720 L 233 720 L 237 716 L 239 718 L 239 717 L 238 716 L 239 715 L 239 714 L 243 710 L 244 710 L 244 707 L 245 706 L 245 705 L 246 704 L 246 701 L 245 700 L 246 699 L 246 698 L 245 697 L 245 693 L 244 693 L 243 692 L 243 691 L 244 690 L 254 690 L 255 691 L 260 691 L 261 692 L 262 691 L 266 691 L 267 692 L 268 691 L 269 691 L 270 690 L 271 690 L 272 691 L 268 695 L 267 695 L 262 700 L 262 701 L 260 703 L 260 705 L 259 706 L 259 707 L 258 708 L 258 710 L 257 711 L 257 714 L 256 715 L 256 719 L 255 720 L 255 727 L 256 728 L 255 729 L 255 732 L 256 733 L 256 742 L 257 743 L 257 744 L 256 745 L 257 746 L 256 747 L 258 749 L 258 751 L 259 752 L 259 754 L 260 754 L 261 755 L 261 758 L 262 758 L 263 759 L 263 761 L 264 762 L 265 762 L 266 763 L 266 764 L 267 764 L 268 765 L 268 766 L 270 768 L 272 768 L 273 769 L 273 771 L 275 769 L 276 770 L 276 771 L 275 772 L 276 771 L 277 772 L 278 771 L 279 771 L 280 772 L 281 772 L 283 774 L 283 775 L 284 775 L 285 774 L 287 776 L 290 776 L 291 777 L 295 777 L 296 778 L 297 778 L 298 777 L 299 777 L 300 778 L 301 778 L 302 779 L 303 779 L 304 778 L 308 778 L 309 779 L 310 778 L 313 778 L 315 776 L 316 777 L 317 776 L 319 776 L 320 775 L 321 775 L 322 776 L 324 774 L 325 774 L 326 775 L 326 774 L 328 772 L 330 772 L 332 770 L 335 770 L 334 769 L 335 768 L 337 768 L 342 763 L 343 763 L 344 762 L 343 761 L 344 760 L 346 760 L 346 759 L 349 756 L 350 756 L 350 755 L 351 754 L 352 754 L 351 753 L 352 752 L 353 752 L 353 751 L 354 750 L 355 750 L 355 748 L 356 747 L 356 746 L 359 743 L 358 742 L 359 741 L 359 739 L 361 737 L 362 737 L 362 736 L 361 735 L 362 734 L 362 731 L 361 730 L 361 729 L 360 728 L 360 727 L 359 726 L 358 726 L 354 730 L 354 732 L 353 733 L 353 735 L 352 736 L 352 737 L 351 738 L 351 739 L 350 740 L 350 742 L 347 745 L 347 746 L 345 748 L 345 749 L 339 755 L 338 755 L 332 761 L 330 761 L 328 763 L 326 763 L 325 764 L 324 764 L 322 766 L 320 766 L 319 767 L 318 767 L 317 768 L 313 768 L 312 769 L 311 768 L 310 768 L 309 769 L 307 769 L 306 770 L 304 770 L 303 769 L 302 769 L 301 770 L 300 769 L 297 769 L 296 768 L 290 768 L 289 767 L 288 767 L 286 765 L 285 765 L 284 764 L 283 764 L 280 761 L 278 761 L 277 760 L 276 760 L 274 758 L 274 757 L 273 756 L 272 756 L 270 754 L 270 753 L 269 752 L 269 751 L 267 749 L 267 745 L 265 743 L 265 742 L 264 741 L 265 740 L 265 739 L 263 737 L 263 735 L 264 734 L 264 732 L 263 731 L 263 720 L 264 719 L 264 715 L 265 714 L 265 712 L 266 711 L 266 710 L 267 709 L 267 708 L 270 705 L 270 704 L 272 702 L 272 701 L 273 700 L 273 698 L 274 697 L 274 695 L 273 694 L 277 690 L 278 691 L 279 690 L 280 690 L 281 689 L 282 689 L 283 690 L 283 691 L 282 692 L 281 692 L 280 693 L 280 694 L 279 695 L 279 696 L 278 697 L 278 698 L 277 699 L 277 710 L 276 711 L 276 712 L 277 713 L 277 715 L 278 716 L 278 719 L 279 720 L 279 721 L 281 723 L 280 724 L 281 724 L 282 725 L 282 727 L 283 727 L 285 729 L 285 730 L 287 732 L 287 734 L 288 734 L 289 735 L 290 735 L 291 736 L 291 737 L 292 737 L 295 740 L 296 740 L 298 742 L 299 741 L 300 741 L 301 742 L 302 742 L 303 743 L 305 743 L 306 744 L 308 744 L 309 743 L 310 744 L 311 744 L 312 743 L 313 743 L 314 744 L 315 743 L 318 743 L 319 742 L 322 742 L 323 741 L 327 741 L 328 740 L 330 740 L 331 739 L 333 739 L 336 736 L 337 736 L 338 735 L 339 735 L 341 733 L 342 733 L 346 729 L 346 728 L 347 727 L 347 726 L 349 724 L 349 719 L 350 718 L 350 716 L 351 715 L 352 715 L 356 719 L 355 720 L 356 721 L 357 721 L 358 722 L 358 723 L 360 723 L 362 725 L 362 726 L 365 729 L 366 729 L 367 730 L 367 731 L 369 731 L 370 732 L 369 733 L 370 733 L 371 732 L 372 733 L 372 735 L 373 734 L 374 735 L 375 735 L 376 736 L 378 736 L 381 739 L 380 740 L 377 740 L 376 741 L 375 741 L 374 742 L 373 742 L 372 743 L 371 743 L 366 748 L 366 749 L 363 752 L 363 755 L 362 756 L 362 758 L 361 759 L 361 762 L 360 763 L 360 764 L 361 765 L 361 768 L 359 770 L 360 771 L 360 773 L 359 774 L 359 775 L 359 774 L 360 773 L 361 774 L 361 775 L 362 776 L 361 777 L 362 778 L 360 780 L 360 781 L 362 779 L 363 780 L 363 781 L 364 782 L 364 783 L 365 784 L 365 787 L 366 787 L 367 786 L 369 788 L 369 790 L 370 790 L 372 792 L 372 793 L 373 792 L 374 792 L 375 793 L 376 793 L 377 794 L 377 795 L 378 795 L 379 796 L 380 796 L 382 794 L 383 795 L 383 796 L 384 796 L 385 797 L 386 797 L 387 798 L 387 797 L 388 796 L 392 796 L 393 795 L 394 796 L 395 795 L 396 796 L 396 799 L 395 800 L 395 803 L 397 803 L 398 804 L 398 805 L 399 806 L 400 806 L 401 805 L 402 805 L 404 803 L 405 803 L 406 802 L 406 801 L 407 800 L 407 797 L 408 796 L 410 796 L 411 795 L 412 795 L 412 794 L 415 791 L 416 791 L 417 790 L 417 789 L 418 788 L 418 787 L 422 783 L 421 782 L 423 780 L 422 779 L 422 778 L 423 777 L 423 776 L 424 775 L 424 774 L 425 773 L 424 772 L 425 771 L 425 768 L 427 766 L 428 767 L 428 770 L 429 771 L 429 774 L 430 775 L 430 777 L 431 778 L 431 779 L 433 781 L 433 782 L 434 783 L 434 784 L 435 785 L 436 785 L 437 786 L 437 787 L 438 788 L 439 788 L 441 790 L 442 790 L 443 791 L 445 791 L 446 792 L 448 792 L 449 791 L 450 792 L 452 792 L 453 793 L 451 795 L 450 795 L 447 798 L 447 801 L 448 802 L 448 803 L 449 804 L 449 805 L 450 805 L 452 807 L 453 806 L 456 806 L 459 803 L 459 797 L 455 793 L 456 792 L 458 792 L 459 793 L 460 793 L 461 792 L 462 793 L 462 794 L 464 792 L 465 793 L 465 794 L 466 793 L 467 793 L 468 792 L 470 794 L 472 792 L 473 793 L 474 792 L 476 792 L 477 791 L 478 792 L 480 790 L 481 790 L 483 788 L 483 787 L 484 786 L 485 786 L 488 783 L 488 781 L 489 780 L 489 779 L 490 778 L 490 775 L 491 774 L 491 773 L 490 772 L 490 771 L 491 770 L 491 766 L 492 765 L 492 764 L 491 764 L 490 763 L 491 762 L 490 761 L 490 758 L 489 757 L 489 755 L 488 755 L 487 754 L 487 753 L 485 751 L 485 750 L 481 746 L 480 746 L 479 745 L 478 745 L 477 744 L 476 744 L 473 741 L 470 741 L 469 740 L 468 740 L 467 739 L 468 738 L 471 738 L 472 737 L 473 737 L 473 736 L 475 734 L 476 734 L 477 735 L 478 735 L 478 733 L 480 731 L 482 731 L 483 730 L 484 730 L 485 731 L 485 732 L 486 733 L 485 734 L 486 735 L 486 736 L 485 737 L 485 738 L 486 738 L 487 739 L 487 740 L 488 741 L 488 744 L 489 744 L 490 745 L 490 746 L 492 748 L 492 750 L 494 752 L 493 753 L 494 753 L 496 755 L 496 757 L 497 757 L 502 762 L 502 763 L 506 767 L 507 766 L 508 766 L 509 767 L 509 768 L 510 769 L 509 770 L 511 770 L 512 771 L 517 771 L 518 772 L 518 774 L 517 775 L 518 775 L 519 774 L 520 774 L 521 775 L 522 775 L 523 776 L 524 776 L 525 777 L 525 779 L 526 779 L 527 778 L 528 778 L 529 777 L 531 779 L 533 779 L 534 778 L 535 779 L 536 778 L 538 778 L 539 779 L 538 780 L 539 781 L 540 780 L 542 780 L 543 779 L 544 780 L 545 779 L 547 779 L 548 778 L 554 778 L 555 777 L 556 777 L 557 778 L 560 775 L 561 776 L 562 775 L 563 775 L 564 774 L 565 774 L 566 775 L 567 774 L 567 773 L 568 772 L 569 773 L 570 773 L 570 772 L 572 770 L 573 770 L 574 769 L 576 771 L 576 770 L 575 769 L 575 768 L 577 766 L 578 766 L 579 765 L 579 764 L 580 763 L 581 764 L 582 763 L 582 762 L 584 760 L 584 759 L 587 756 L 589 758 L 588 757 L 588 754 L 589 753 L 589 752 L 590 751 L 590 750 L 591 749 L 591 747 L 594 744 L 594 743 L 593 744 L 592 743 L 592 741 L 594 739 L 595 739 L 594 738 L 595 737 L 595 736 L 594 735 L 595 734 L 595 730 L 596 729 L 596 727 L 595 726 L 595 725 L 594 724 L 594 723 L 595 722 L 595 720 L 594 719 L 594 718 L 593 717 L 593 714 L 592 713 L 592 712 L 593 711 L 592 711 L 591 710 L 591 709 L 590 708 L 590 704 L 589 703 L 589 702 L 590 701 L 589 700 L 589 699 L 590 698 L 589 697 L 589 696 L 588 696 L 587 695 L 580 695 L 577 698 L 577 701 L 578 702 L 578 703 L 579 703 L 580 704 L 580 706 L 582 708 L 582 710 L 583 711 L 583 713 L 584 714 L 584 717 L 585 718 L 585 719 L 586 720 L 586 727 L 585 728 L 585 734 L 584 735 L 584 737 L 583 738 L 583 741 L 582 742 L 582 745 L 581 746 L 581 747 L 580 748 L 580 749 L 578 751 L 578 752 L 573 757 L 573 758 L 572 759 L 571 759 L 568 762 L 567 762 L 565 764 L 564 764 L 562 766 L 561 766 L 560 767 L 558 767 L 557 768 L 554 768 L 553 769 L 549 769 L 548 770 L 545 770 L 544 769 L 543 770 L 542 770 L 541 769 L 540 769 L 539 770 L 538 769 L 530 769 L 528 767 L 524 767 L 521 764 L 519 764 L 518 763 L 517 763 L 515 761 L 514 761 L 513 760 L 512 760 L 505 753 L 504 753 L 503 752 L 503 751 L 500 748 L 501 747 L 502 747 L 501 747 L 498 744 L 498 743 L 497 742 L 497 740 L 496 739 L 496 738 L 495 737 L 495 735 L 494 734 L 494 733 L 493 732 L 493 731 L 492 730 L 492 729 L 491 728 L 490 728 L 489 727 L 489 725 L 496 718 L 497 718 L 498 717 L 499 718 L 499 720 L 500 721 L 500 722 L 499 723 L 500 724 L 500 727 L 501 728 L 501 730 L 503 732 L 503 733 L 504 734 L 505 734 L 507 736 L 508 736 L 512 740 L 512 742 L 513 741 L 514 741 L 515 742 L 519 742 L 520 743 L 523 743 L 524 744 L 525 744 L 526 743 L 528 743 L 529 744 L 530 744 L 531 743 L 532 744 L 533 744 L 534 743 L 535 743 L 536 744 L 537 743 L 541 743 L 542 742 L 542 741 L 544 739 L 545 740 L 547 740 L 548 739 L 550 739 L 550 738 L 551 737 L 553 737 L 554 736 L 555 736 L 555 735 L 559 731 L 560 731 L 561 730 L 561 729 L 562 728 L 563 728 L 563 727 L 565 725 L 565 724 L 568 721 L 568 720 L 571 717 L 570 716 L 570 715 L 571 714 L 571 711 L 572 710 L 572 708 L 573 707 L 572 706 L 572 704 L 573 703 L 573 702 L 572 701 L 573 700 L 573 699 L 571 697 L 571 694 L 570 693 L 570 692 L 568 690 L 569 689 L 571 689 L 572 688 L 573 688 L 574 689 L 584 689 L 585 690 L 586 689 L 587 689 L 588 690 L 589 689 L 590 690 L 594 690 L 595 689 L 596 690 L 596 691 L 597 690 L 597 689 L 598 688 L 599 689 L 601 689 L 602 688 L 603 688 L 604 689 L 604 693 L 603 694 L 603 701 L 604 702 L 604 704 L 605 705 L 605 707 L 606 708 L 606 709 L 610 713 L 610 714 L 611 714 L 612 715 L 613 715 L 615 717 L 616 717 L 618 719 L 619 719 L 620 720 L 622 720 L 623 721 L 625 721 L 626 722 L 629 722 L 630 723 L 631 723 L 632 722 L 633 723 L 633 724 L 635 724 L 636 723 L 639 723 L 640 722 L 642 724 L 644 724 L 645 723 L 647 723 L 648 724 L 650 722 L 651 723 L 651 725 L 652 724 L 652 723 L 653 722 L 655 722 L 656 723 L 657 723 L 656 722 L 658 720 L 661 720 L 661 719 L 663 717 L 664 717 L 665 718 L 664 717 L 664 716 L 665 715 L 666 715 L 666 713 L 667 712 L 668 712 L 670 710 L 671 710 L 670 709 L 670 707 L 671 706 L 671 701 L 672 700 L 672 699 L 673 698 L 672 697 L 672 696 L 673 695 L 672 694 L 672 689 L 671 688 L 671 687 L 672 686 L 671 685 L 672 684 L 675 684 L 676 685 L 676 686 L 677 685 L 678 686 L 683 686 L 684 685 L 688 685 L 689 684 L 692 684 L 693 683 L 695 683 L 696 682 L 696 681 L 697 680 L 699 680 L 699 679 L 700 678 L 702 678 L 702 677 L 703 676 L 704 676 L 705 675 L 705 674 L 707 672 L 708 673 L 708 672 L 707 671 L 708 670 L 708 668 L 709 667 L 710 667 L 710 665 L 711 664 L 711 659 L 712 658 L 712 657 L 713 656 L 712 655 L 713 654 L 713 652 L 712 651 L 712 647 L 713 646 L 711 644 L 711 643 L 710 642 L 710 640 L 708 638 L 708 637 L 707 636 L 707 635 L 701 629 L 700 629 L 698 627 L 697 627 L 695 625 L 694 625 L 693 624 L 692 624 L 690 622 L 689 622 L 688 621 L 685 621 L 684 620 L 678 620 L 677 621 L 676 621 L 675 622 L 674 622 L 672 620 L 672 613 L 673 612 L 673 606 L 674 605 L 673 604 L 673 603 L 674 602 L 673 602 L 672 601 L 674 599 L 673 599 L 671 597 L 671 596 L 670 595 L 670 594 L 671 593 L 671 591 L 672 590 L 675 590 L 676 591 L 677 591 L 678 592 L 679 591 L 680 592 L 681 592 L 682 591 L 683 592 L 684 591 L 685 591 L 686 592 L 687 591 L 689 591 L 690 590 L 693 590 L 695 588 L 697 588 L 699 586 L 700 586 L 702 584 L 703 584 L 706 581 L 706 580 L 711 575 L 711 574 L 713 572 L 713 570 L 714 569 L 713 568 L 713 567 L 715 565 L 715 563 L 716 562 L 716 561 L 715 560 L 715 556 L 716 555 L 716 552 L 715 551 L 715 546 L 714 545 L 714 544 L 713 543 L 713 540 L 712 539 L 712 538 L 711 537 L 711 536 L 708 533 L 708 531 L 701 524 L 700 524 L 698 522 L 697 522 L 695 520 L 694 520 L 693 519 L 692 520 L 691 519 L 691 518 L 692 517 L 695 517 L 696 516 L 697 516 L 698 515 L 699 515 L 700 516 L 701 515 L 703 517 L 705 517 L 706 518 L 708 518 L 709 519 L 710 519 L 711 520 L 712 519 L 714 521 L 715 521 L 716 522 L 717 522 L 718 523 L 720 523 L 721 524 L 722 524 L 724 526 L 725 526 L 732 533 L 733 533 L 735 535 L 735 536 L 738 539 L 738 540 L 739 540 L 740 541 L 740 542 L 741 543 L 741 545 L 742 545 L 744 547 L 744 549 L 745 550 L 745 552 L 747 554 L 747 560 L 749 562 L 748 563 L 748 570 L 747 571 L 747 575 L 746 576 L 746 577 L 747 578 L 745 580 L 745 582 L 744 583 L 744 584 L 743 585 L 743 586 L 742 587 L 742 588 L 740 590 L 740 591 L 739 592 L 738 592 L 737 593 L 737 594 L 734 597 L 733 597 L 730 600 L 729 600 L 727 602 L 726 602 L 725 603 L 724 603 L 723 604 L 722 604 L 721 605 L 719 605 L 718 606 L 716 606 L 715 607 L 712 607 L 711 608 L 706 608 L 705 607 L 704 608 L 700 608 L 699 607 L 698 607 L 697 608 L 696 607 L 693 607 L 691 605 L 689 605 L 688 604 L 687 604 L 685 602 L 684 602 L 683 601 L 682 601 L 681 600 L 678 600 L 677 601 L 677 606 L 679 608 L 679 609 L 680 610 L 680 611 L 681 612 L 682 612 L 683 613 L 684 613 L 685 614 L 687 614 L 688 615 L 689 615 L 690 614 L 691 615 L 696 615 L 697 616 L 698 615 L 699 615 L 700 616 L 700 617 L 702 615 L 704 617 L 703 618 L 703 619 L 703 618 L 705 616 L 706 616 L 707 617 L 708 617 L 709 616 L 710 617 L 711 616 L 712 617 L 713 616 L 716 616 L 717 615 L 719 615 L 720 614 L 722 614 L 723 615 L 724 615 L 723 614 L 724 613 L 725 613 L 726 614 L 726 615 L 727 615 L 727 612 L 728 611 L 729 612 L 731 610 L 734 610 L 734 609 L 736 607 L 737 607 L 748 596 L 748 595 L 749 594 L 750 594 L 750 593 L 751 592 L 751 591 L 753 589 L 754 590 L 753 589 L 753 587 L 754 586 L 754 585 L 756 583 L 756 579 L 757 578 L 757 575 L 758 574 L 758 573 L 757 572 L 758 571 L 758 567 L 759 566 L 759 561 L 758 561 L 757 560 L 757 558 L 758 557 L 758 556 L 757 555 L 757 553 L 756 552 L 756 549 L 755 550 L 754 549 L 754 547 L 753 546 L 753 545 L 752 544 L 752 542 L 749 539 L 749 538 L 746 535 L 746 534 L 745 534 L 743 532 L 743 531 L 742 531 L 741 530 L 741 529 L 739 527 L 739 526 L 738 526 L 735 523 L 735 519 L 733 521 L 732 521 L 731 520 L 731 519 L 730 518 L 730 517 L 729 517 L 728 516 L 727 516 L 726 515 L 726 514 L 725 514 L 724 513 L 724 512 L 723 513 L 722 512 L 721 512 L 720 511 L 707 511 L 706 512 L 705 512 L 704 513 L 703 512 L 703 511 L 706 508 L 708 508 L 713 503 L 713 502 L 714 501 L 715 501 L 716 500 L 716 499 L 717 498 L 718 498 L 718 497 L 723 492 L 724 493 L 724 498 L 725 499 L 725 501 L 726 500 L 727 501 L 727 502 L 728 503 L 728 504 L 729 504 L 730 505 L 730 506 L 732 506 L 733 507 L 735 507 L 736 508 L 736 509 L 735 510 L 736 509 L 738 509 L 739 510 L 740 509 L 741 509 L 742 510 L 744 510 L 745 511 L 748 511 L 749 510 L 750 510 L 751 511 L 753 511 L 754 510 L 758 510 L 759 509 L 760 510 L 761 509 L 762 509 L 763 508 L 764 508 L 765 507 L 766 507 L 767 506 L 768 506 L 769 507 L 769 508 L 769 505 L 770 504 L 771 504 L 773 502 L 774 502 L 774 501 L 776 499 L 776 497 L 778 495 L 778 492 L 779 491 L 779 486 L 780 485 L 780 482 L 781 481 L 781 480 L 780 481 L 779 481 L 778 480 L 778 477 L 779 476 L 777 474 L 777 470 L 776 469 L 776 468 L 775 467 L 775 466 L 776 465 L 778 467 L 778 468 L 779 469 L 779 470 L 781 472 L 783 472 L 784 473 L 786 473 L 787 474 L 788 474 L 789 473 L 789 470 L 790 469 L 792 469 L 793 470 L 793 471 L 792 472 L 793 471 L 793 467 L 792 466 L 792 464 L 793 463 L 792 462 L 792 460 L 789 460 L 787 458 L 787 457 L 785 457 L 784 458 L 780 458 L 779 457 L 780 456 L 780 454 L 778 452 L 776 452 L 773 449 L 773 448 L 772 448 L 771 447 L 769 447 L 768 446 L 767 446 L 766 445 L 762 445 L 761 444 L 759 444 L 758 443 L 760 441 L 760 440 L 761 439 L 762 439 L 763 440 L 764 439 L 766 439 L 766 438 L 767 437 L 768 437 L 769 436 L 770 436 L 771 435 L 773 435 L 774 434 L 775 434 L 776 435 L 776 436 L 777 435 L 778 435 L 778 434 L 777 434 L 776 435 L 775 434 L 775 433 L 777 431 L 777 430 L 778 429 L 779 429 L 779 428 L 780 427 L 780 425 L 781 424 L 781 423 L 783 421 L 783 420 L 785 418 L 786 419 L 788 419 L 789 418 L 790 418 L 791 417 L 791 414 L 792 413 L 792 411 L 793 410 L 791 408 L 791 407 L 790 407 L 789 406 L 788 406 L 787 405 L 786 405 L 785 406 L 783 406 L 783 407 L 782 408 L 782 409 L 781 410 L 781 411 L 780 412 L 780 414 L 779 415 L 779 416 L 777 418 L 777 419 L 776 420 L 776 421 L 775 422 L 774 422 L 774 423 L 767 430 L 766 430 L 765 431 L 764 431 L 763 432 L 762 432 L 761 433 L 760 433 L 759 434 L 758 434 L 757 433 L 759 431 L 760 431 L 763 428 L 764 428 L 770 422 L 770 421 L 772 419 L 772 418 L 773 417 L 774 418 L 773 417 L 775 415 L 775 414 L 776 413 L 776 412 L 777 411 L 776 410 L 777 409 L 777 408 L 778 407 L 778 404 L 779 403 L 778 402 L 778 401 L 779 400 L 779 398 L 780 397 L 780 395 L 778 393 L 778 392 L 779 391 L 779 390 L 777 388 L 778 387 L 777 386 L 777 385 L 776 384 L 776 383 L 776 385 L 775 386 L 774 385 L 774 384 L 773 383 L 773 382 L 774 381 L 774 380 L 773 380 L 772 379 L 771 379 L 769 377 L 768 377 L 765 374 L 764 374 L 763 373 L 762 373 L 761 374 L 760 373 L 759 373 L 758 372 L 757 372 L 756 373 L 755 373 L 754 372 L 754 371 L 753 371 L 752 372 L 751 371 L 750 371 L 749 372 L 744 372 L 743 371 L 742 371 L 740 373 L 738 373 L 737 374 L 735 374 L 734 375 L 733 375 L 732 376 L 731 376 L 730 377 L 729 377 L 726 380 L 725 380 L 725 381 L 724 382 L 724 383 L 723 384 L 723 385 L 724 386 L 723 387 L 723 388 L 721 390 L 720 390 L 719 391 L 717 389 L 718 388 L 717 387 L 716 387 L 712 383 L 711 383 L 710 382 L 709 382 L 706 379 L 705 379 L 703 377 L 703 376 L 702 375 L 700 375 L 699 374 L 700 373 L 700 372 L 698 370 L 696 372 L 694 372 L 692 370 L 695 367 L 696 367 L 699 364 L 701 364 L 702 363 L 702 362 L 703 361 L 704 361 L 705 360 L 705 359 L 706 358 L 707 358 L 707 356 L 708 355 L 709 355 L 709 354 L 710 353 L 710 352 L 711 351 L 711 348 L 712 347 L 712 345 L 713 344 L 713 341 L 714 340 L 714 338 L 713 337 L 714 336 L 714 333 L 713 332 L 714 331 L 714 329 L 713 328 L 713 324 L 711 322 L 711 321 L 710 320 L 710 318 L 709 317 L 709 315 L 708 315 L 707 314 L 707 313 L 700 306 L 699 306 L 698 305 L 698 304 L 697 304 L 695 302 L 693 302 L 692 301 L 691 301 L 690 300 L 688 300 L 687 299 L 682 299 L 681 298 L 678 298 L 677 299 L 675 299 L 674 300 L 669 300 L 668 299 L 668 296 L 669 295 L 669 294 L 670 293 L 672 293 L 670 291 L 671 290 L 671 289 L 674 286 L 675 287 L 676 286 L 677 286 L 678 285 L 680 285 L 681 284 L 683 284 L 684 283 L 685 283 L 686 282 L 687 282 L 688 281 L 691 281 L 691 280 L 692 279 L 693 280 L 696 280 L 697 279 L 698 280 L 699 279 L 705 279 L 706 278 L 707 279 L 711 279 L 712 280 L 716 280 L 717 281 L 718 281 L 720 283 L 722 283 L 724 285 L 726 285 L 728 287 L 729 287 L 735 293 L 736 293 L 737 294 L 737 296 L 738 296 L 739 297 L 739 299 L 740 299 L 742 301 L 741 302 L 742 303 L 742 304 L 743 305 L 743 306 L 745 308 L 745 311 L 746 312 L 746 313 L 745 314 L 745 315 L 747 317 L 746 318 L 746 321 L 747 322 L 747 325 L 746 326 L 746 330 L 745 331 L 745 332 L 746 333 L 745 334 L 745 335 L 744 336 L 744 338 L 743 339 L 743 340 L 742 341 L 742 342 L 741 343 L 741 344 L 739 346 L 738 346 L 739 347 L 733 353 L 733 354 L 732 355 L 731 355 L 729 357 L 728 356 L 728 355 L 728 357 L 726 359 L 725 359 L 724 360 L 723 360 L 721 362 L 720 362 L 719 363 L 718 363 L 717 362 L 715 362 L 715 363 L 714 364 L 709 364 L 708 365 L 706 365 L 705 366 L 705 367 L 704 368 L 704 369 L 705 370 L 705 372 L 706 373 L 707 373 L 708 374 L 710 374 L 711 373 L 712 373 L 713 372 L 714 372 L 715 373 L 715 374 L 717 372 L 718 372 L 718 371 L 719 370 L 720 371 L 722 369 L 724 369 L 726 367 L 727 368 L 728 368 L 728 367 L 729 366 L 730 366 L 732 364 L 733 364 L 734 363 L 735 364 L 735 363 L 736 362 L 737 362 L 738 361 L 738 360 L 740 358 L 741 358 L 740 357 L 741 356 L 743 356 L 745 354 L 744 353 L 745 352 L 746 352 L 746 351 L 747 350 L 747 349 L 749 347 L 749 345 L 750 344 L 750 343 L 751 342 L 751 340 L 752 339 L 752 338 L 753 337 L 753 335 L 754 334 L 754 331 L 755 330 L 755 329 L 754 328 L 755 327 L 756 327 L 755 326 L 756 325 L 756 320 L 755 319 L 755 318 L 756 317 L 756 316 L 755 315 L 756 314 L 756 313 L 755 312 L 755 310 L 754 309 L 754 306 L 753 306 L 752 305 L 752 303 L 753 302 L 753 301 L 752 301 L 750 299 L 750 296 L 749 296 L 748 295 L 748 293 L 747 292 L 747 291 L 740 284 L 741 283 L 740 283 L 739 282 L 738 282 L 737 281 L 737 280 L 738 279 L 739 279 L 739 278 L 736 281 L 735 281 L 734 280 L 734 279 L 732 277 L 732 276 L 731 275 L 731 274 L 730 275 L 729 275 L 728 274 L 726 274 L 725 273 L 724 274 L 722 272 L 721 272 L 719 270 L 718 270 L 717 271 L 716 271 L 715 270 L 714 271 L 712 271 L 710 269 L 709 269 L 708 268 L 708 269 L 707 270 L 706 270 L 705 269 L 705 270 L 704 271 L 703 270 L 696 270 L 695 271 L 694 271 L 693 272 L 692 271 L 691 272 L 690 271 L 689 271 L 688 270 L 687 270 L 686 269 L 686 267 L 686 268 L 685 269 L 684 269 L 683 268 L 682 268 L 681 269 L 680 269 L 679 270 L 679 271 L 677 273 L 677 274 L 679 274 L 680 275 L 681 274 L 682 274 L 683 275 L 681 277 L 680 277 L 676 281 L 675 281 L 675 282 L 673 284 L 671 282 L 671 276 L 672 275 L 672 273 L 671 272 L 671 269 L 672 268 L 672 267 L 671 268 L 670 267 L 670 265 L 671 264 L 670 263 L 670 261 L 669 260 L 669 257 L 668 256 L 668 255 L 670 253 L 672 255 L 672 254 L 673 253 L 674 254 L 677 254 L 678 255 L 677 256 L 677 257 L 678 257 L 678 256 L 679 255 L 682 255 L 683 256 L 683 255 L 685 253 L 687 253 L 688 252 L 689 253 L 691 251 L 692 251 L 693 250 L 694 250 L 695 249 L 696 249 L 697 248 L 698 248 L 698 247 L 701 244 L 701 243 L 705 239 L 705 236 L 704 235 L 704 234 L 707 231 L 707 229 L 708 228 L 708 223 L 709 222 L 708 221 L 709 220 L 708 219 L 708 218 L 709 217 L 707 215 L 707 211 L 706 210 L 706 207 L 705 207 L 704 206 L 704 205 L 702 203 L 702 202 L 703 201 L 702 202 L 701 202 L 700 201 L 700 199 L 699 199 L 698 198 L 699 197 L 697 197 L 695 195 L 694 195 L 691 192 L 689 192 L 687 190 L 686 191 L 685 190 L 683 190 L 682 189 L 672 189 L 671 190 L 667 190 L 665 192 L 664 192 L 663 193 L 661 191 L 661 190 L 662 189 L 663 189 L 663 187 L 664 186 L 664 183 L 669 178 L 673 178 L 675 180 L 676 180 L 676 179 L 677 178 L 678 178 L 678 177 L 677 176 L 677 173 L 675 173 L 674 174 L 669 174 L 668 173 L 668 171 L 667 170 L 667 169 L 665 167 L 665 165 L 664 164 L 664 162 L 662 160 L 662 159 L 661 159 L 660 158 L 659 158 L 657 156 L 657 154 L 654 154 L 653 153 L 650 153 L 649 152 L 649 150 L 648 150 L 647 151 L 646 150 L 646 148 L 646 149 L 644 151 L 643 150 L 639 150 L 638 149 L 638 148 L 637 148 L 635 150 L 633 150 L 632 149 L 631 149 L 630 150 L 629 149 L 628 150 L 626 150 L 624 152 L 622 152 L 621 153 L 620 153 L 619 152 L 618 152 L 618 153 L 615 156 L 614 156 L 612 158 L 611 158 L 606 163 L 605 163 L 605 164 L 602 167 L 602 168 L 601 169 L 601 170 L 600 171 L 600 172 L 599 173 L 599 180 L 598 181 L 599 182 L 599 186 L 600 187 L 600 188 L 603 188 L 604 189 L 604 190 L 602 192 L 601 192 L 600 191 L 600 190 L 599 190 L 598 191 L 594 191 L 593 190 L 590 190 L 589 189 L 588 190 L 586 190 L 585 189 L 584 190 L 579 190 L 578 191 L 577 190 L 576 190 L 575 189 L 574 189 L 573 190 L 571 190 L 570 189 L 571 188 L 572 188 L 573 187 L 574 187 L 575 186 L 576 186 L 576 185 L 577 184 L 578 185 L 579 184 L 580 185 L 581 185 L 584 182 L 584 175 L 585 174 L 585 173 L 584 172 L 584 171 L 585 170 L 585 168 L 586 167 L 586 166 L 587 165 L 587 163 L 589 161 L 588 160 L 589 159 L 589 157 L 590 156 L 589 156 L 588 155 L 588 154 L 589 153 L 589 151 L 588 150 L 588 148 L 589 147 L 588 146 L 588 144 L 587 143 L 587 140 L 588 139 L 587 140 L 586 139 L 586 135 L 585 136 L 584 135 L 584 133 L 583 132 L 584 131 L 582 129 L 582 128 L 579 125 L 579 124 L 578 123 L 578 122 L 576 122 L 574 120 L 574 118 L 573 118 L 572 117 L 572 116 L 570 116 L 569 115 L 568 115 L 567 114 L 567 113 L 568 112 L 568 111 L 568 112 L 567 113 L 565 113 L 563 111 L 562 111 L 561 110 L 561 108 L 560 109 L 559 109 L 558 110 L 557 110 L 554 107 L 547 107 L 546 106 L 546 105 L 544 107 L 538 107 L 537 106 L 537 105 L 536 105 L 534 107 L 531 107 L 530 108 L 526 108 L 525 109 L 522 109 L 520 111 L 518 111 L 516 113 L 514 113 L 513 112 L 513 113 L 511 115 L 510 115 L 510 116 L 509 117 L 508 117 L 507 118 L 506 118 L 501 123 L 500 123 L 498 125 L 498 126 L 497 127 L 496 127 L 496 128 L 492 132 L 492 133 L 490 135 L 489 135 L 489 136 L 488 137 L 486 137 L 482 141 L 482 143 L 481 144 L 481 153 L 480 154 L 477 151 L 476 151 L 473 148 L 472 148 L 470 146 L 469 146 L 467 144 L 467 143 L 466 144 L 465 143 L 462 143 L 461 142 L 463 140 L 464 141 L 466 139 L 467 140 L 468 139 L 469 140 L 470 140 L 471 139 L 476 139 L 477 138 L 478 138 L 481 135 L 482 135 L 482 134 L 486 130 L 486 129 L 487 128 L 487 127 L 488 126 L 488 125 L 489 124 L 489 123 L 490 122 L 491 122 L 491 121 L 490 120 L 490 119 L 491 118 L 491 116 L 492 115 L 492 113 L 491 112 L 492 111 L 492 108 L 491 107 L 492 106 L 492 105 L 493 104 L 490 101 L 490 100 L 491 99 L 489 97 L 489 95 L 488 94 L 488 93 L 487 93 L 486 92 L 486 91 L 484 89 L 484 88 L 481 85 L 480 86 L 476 82 L 475 82 L 474 81 L 472 81 L 471 80 L 468 80 L 467 79 L 466 80 L 465 80 L 464 79 L 465 78 L 464 79 L 463 79 L 462 80 L 458 80 L 457 79 L 457 78 L 456 79 L 455 78 L 455 79 L 454 80 L 451 80 L 449 82 L 446 82 L 444 84 L 443 84 L 442 85 L 441 85 L 441 86 L 439 88 L 438 88 L 436 90 L 435 90 L 435 91 L 434 92 L 432 92 L 432 93 L 429 96 L 429 97 L 428 98 L 428 100 L 427 101 L 427 104 L 426 105 L 426 110 L 425 111 L 425 114 L 424 115 L 424 118 L 423 119 L 422 118 L 422 116 L 421 115 L 421 113 L 420 112 L 420 107 L 419 106 L 419 105 L 418 104 L 418 101 L 417 100 L 418 99 L 414 95 L 414 93 L 413 92 L 413 91 L 408 86 L 408 85 L 405 82 L 405 81 L 404 80 L 403 81 L 402 80 L 402 79 L 403 78 L 403 75 L 402 74 L 402 71 L 400 69 L 399 69 L 398 68 L 397 68 L 396 67 Z" fill="black" stroke="none" /><path d="M 382 67 Z" fill="black" stroke="none" /><path d="M 239 67 Z" fill="black" stroke="none" /><path d="M 75 67 Z" fill="black" stroke="none" /><path d="M 34 67 Z" fill="black" stroke="none" /><path d="M 16 67 L 16 68 L 15 69 L 17 67 Z" fill="black" stroke="none" /><path d="M 0 67 Z" fill="black" stroke="none" /><path d="M 377 65 L 377 66 Z" fill="black" stroke="none" /><path d="M 137 64 Z" fill="black" stroke="none" /><path d="M 94 64 Z" fill="black" stroke="none" /><path d="M 32 64 L 33 64 Z" fill="black" stroke="none" /><path d="M 776 63 L 775 64 L 775 67 L 776 68 L 779 68 L 779 67 L 780 66 L 779 65 L 779 63 Z" fill="black" stroke="none" /><path d="M 396 62 L 396 63 Z" fill="black" stroke="none" /><path d="M 24 62 L 25 62 Z" fill="black" stroke="none" /><path d="M 0 62 Z" fill="black" stroke="none" /><path d="M 512 61 Z" fill="black" stroke="none" /><path d="M 447 61 L 446 62 L 444 62 L 441 65 L 441 66 L 440 67 L 440 69 L 441 70 L 441 71 L 443 73 L 443 75 L 444 75 L 445 74 L 446 75 L 447 74 L 450 74 L 452 76 L 452 74 L 454 72 L 454 68 L 455 67 L 454 66 L 454 65 L 453 64 L 452 64 L 450 62 L 450 61 L 449 62 L 448 61 Z" fill="black" stroke="none" /><path d="M 43 61 Z" fill="black" stroke="none" /><path d="M 421 60 L 420 61 L 418 61 L 414 65 L 414 66 L 413 67 L 413 68 L 412 69 L 412 74 L 413 75 L 413 78 L 417 82 L 418 82 L 419 83 L 420 83 L 421 84 L 422 84 L 423 83 L 425 83 L 426 82 L 427 82 L 428 81 L 429 81 L 432 78 L 432 76 L 433 75 L 433 74 L 434 73 L 433 72 L 433 68 L 432 67 L 432 64 L 429 61 L 427 61 L 426 60 Z" fill="black" stroke="none" /><path d="M 15 59 L 12 62 L 11 62 L 10 63 L 11 62 L 12 62 L 14 60 L 15 60 Z" fill="black" stroke="none" /><path d="M 45 58 Z" fill="black" stroke="none" /><path d="M 100 57 Z" fill="black" stroke="none" /><path d="M 30 57 Z" fill="black" stroke="none" /><path d="M 78 56 Z" fill="black" stroke="none" /><path d="M 47 56 Z" fill="black" stroke="none" /><path d="M 444 55 Z" fill="black" stroke="none" /><path d="M 399 55 Z" fill="black" stroke="none" /><path d="M 74 55 Z" fill="black" stroke="none" /><path d="M 55 55 L 54 56 Z" fill="black" stroke="none" /><path d="M 1 55 L 0 56 L 0 57 L 0 56 Z" fill="black" stroke="none" /><path d="M 433 54 Z" fill="black" stroke="none" /><path d="M 11 54 L 12 54 Z" fill="black" stroke="none" /><path d="M 409 53 Z" fill="black" stroke="none" /><path d="M 152 53 L 151 54 Z" fill="black" stroke="none" /><path d="M 28 53 Z" fill="black" stroke="none" /><path d="M 22 53 L 22 54 L 21 55 L 20 55 L 17 58 L 18 57 L 19 57 L 22 54 Z" fill="black" stroke="none" /><path d="M 54 52 Z" fill="black" stroke="none" /><path d="M 5 52 Z" fill="black" stroke="none" /><path d="M 58 51 L 57 52 Z" fill="black" stroke="none" /><path d="M 31 51 L 30 52 Z" fill="black" stroke="none" /><path d="M 26 51 L 25 52 Z" fill="black" stroke="none" /><path d="M 19 50 Z" fill="black" stroke="none" /><path d="M 3 50 Z" fill="black" stroke="none" /><path d="M 407 49 L 407 50 L 408 50 Z" fill="black" stroke="none" /><path d="M 86 49 Z" fill="black" stroke="none" /><path d="M 91 48 Z" fill="black" stroke="none" /><path d="M 53 48 Z" fill="black" stroke="none" /><path d="M 50 47 Z" fill="black" stroke="none" /><path d="M 32 47 L 31 48 Z" fill="black" stroke="none" /><path d="M 93 46 Z" fill="black" stroke="none" /><path d="M 163 45 Z" fill="black" stroke="none" /><path d="M 64 45 L 63 46 L 64 46 Z" fill="black" stroke="none" /><path d="M 40 45 Z" fill="black" stroke="none" /><path d="M 90 44 L 89 45 Z" fill="black" stroke="none" /><path d="M 15 44 L 15 45 L 14 46 L 15 46 Z" fill="black" stroke="none" /><path d="M 412 43 L 412 44 L 411 45 L 412 45 Z" fill="black" stroke="none" /><path d="M 13 43 L 12 44 L 12 45 L 10 47 L 9 47 L 10 47 L 13 44 Z" fill="black" stroke="none" /><path d="M 57 42 Z" fill="black" stroke="none" /><path d="M 54 42 L 53 43 L 51 43 L 51 44 L 52 43 L 53 43 Z" fill="black" stroke="none" /><path d="M 9 42 L 8 43 Z" fill="black" stroke="none" /><path d="M 100 41 Z" fill="black" stroke="none" /><path d="M 2 41 L 1 42 Z" fill="black" stroke="none" /><path d="M 47 40 L 45 42 L 44 42 L 45 42 Z" fill="black" stroke="none" /><path d="M 12 40 Z" fill="black" stroke="none" /><path d="M 0 40 Z" fill="black" stroke="none" /><path d="M 24 39 L 21 42 Z" fill="black" stroke="none" /><path d="M 19 38 Z" fill="black" stroke="none" /><path d="M 169 37 Z" fill="black" stroke="none" /><path d="M 104 36 Z" fill="black" stroke="none" /><path d="M 8 36 L 7 37 Z" fill="black" stroke="none" /><path d="M 30 35 Z" fill="black" stroke="none" /><path d="M 24 35 Z" fill="black" stroke="none" /><path d="M 15 35 Z" fill="black" stroke="none" /><path d="M 6 34 L 4 36 Z" fill="black" stroke="none" /><path d="M 478 33 Z" fill="black" stroke="none" /><path d="M 59 33 Z" fill="black" stroke="none" /><path d="M 34 33 Z" fill="black" stroke="none" /><path d="M 425 32 L 424 33 L 419 33 L 417 35 L 416 35 L 415 36 L 415 38 L 414 39 L 414 40 L 413 41 L 414 42 L 414 45 L 416 47 L 416 50 L 418 50 L 419 51 L 419 52 L 420 51 L 421 51 L 422 52 L 425 52 L 426 51 L 428 51 L 432 47 L 432 46 L 433 45 L 432 44 L 432 38 L 431 37 L 431 36 L 429 34 L 428 34 L 427 33 L 426 33 Z" fill="black" stroke="none" /><path d="M 60 31 Z" fill="black" stroke="none" /><path d="M 41 31 L 40 32 L 41 32 Z" fill="black" stroke="none" /><path d="M 29 31 Z" fill="black" stroke="none" /><path d="M 414 30 L 413 31 Z" fill="black" stroke="none" /><path d="M 290 30 L 290 31 Z" fill="black" stroke="none" /><path d="M 64 30 Z" fill="black" stroke="none" /><path d="M 57 30 L 53 34 L 55 32 L 56 32 L 57 31 Z" fill="black" stroke="none" /><path d="M 0 30 Z" fill="black" stroke="none" /><path d="M 61 29 Z" fill="black" stroke="none" /><path d="M 41 29 Z" fill="black" stroke="none" /><path d="M 11 29 Z" fill="black" stroke="none" /><path d="M 427 28 Z" fill="black" stroke="none" /><path d="M 65 28 Z" fill="black" stroke="none" /><path d="M 40 27 L 39 28 L 38 28 L 36 30 L 36 31 Z" fill="black" stroke="none" /><path d="M 15 25 L 14 26 L 13 26 L 14 26 Z" fill="black" stroke="none" /><path d="M 3 24 L 0 27 Z" fill="black" stroke="none" /><path d="M 384 21 L 383 22 L 384 22 Z" fill="black" stroke="none" /><path d="M 72 21 Z" fill="black" stroke="none" /><path d="M 56 21 L 53 24 L 55 22 L 56 22 Z" fill="black" stroke="none" /><path d="M 12 21 Z" fill="black" stroke="none" /><path d="M 28 20 Z" fill="black" stroke="none" /><path d="M 23 20 Z" fill="black" stroke="none" /><path d="M 8 20 L 5 23 L 7 21 L 8 21 Z" fill="black" stroke="none" /><path d="M 45 19 Z" fill="black" stroke="none" /><path d="M 14 19 Z" fill="black" stroke="none" /><path d="M 424 18 L 423 19 L 421 19 L 421 23 L 422 24 L 423 24 L 424 23 L 425 23 L 426 22 L 426 21 L 425 20 L 425 19 Z" fill="black" stroke="none" /><path d="M 75 18 Z" fill="black" stroke="none" /><path d="M 24 18 Z" fill="black" stroke="none" /><path d="M 206 17 Z" fill="black" stroke="none" /><path d="M 77 17 Z" fill="black" stroke="none" /><path d="M 12 17 Z" fill="black" stroke="none" /><path d="M 208 16 Z" fill="black" stroke="none" /><path d="M 36 16 Z" fill="black" stroke="none" /><path d="M 17 16 L 16 17 Z" fill="black" stroke="none" /><path d="M 408 15 Z" fill="black" stroke="none" /><path d="M 19 15 Z" fill="black" stroke="none" /><path d="M 79 14 Z" fill="black" stroke="none" /><path d="M 215 13 L 215 14 Z" fill="black" stroke="none" /><path d="M 30 13 Z" fill="black" stroke="none" /><path d="M 67 12 Z" fill="black" stroke="none" /><path d="M 246 11 Z" fill="black" stroke="none" /><path d="M 120 10 L 120 11 L 119 12 L 120 11 Z" fill="black" stroke="none" /><path d="M 61 10 L 60 11 Z" fill="black" stroke="none" /><path d="M 5 9 Z" fill="black" stroke="none" /><path d="M 274 8 Z" fill="black" stroke="none" /><path d="M 232 7 Z" fill="black" stroke="none" /><path d="M 147 6 Z" fill="black" stroke="none" /><path d="M 87 6 L 86 7 Z" fill="black" stroke="none" /><path d="M 38 4 Z" fill="black" stroke="none" /><path d="M 63 2 Z" fill="black" stroke="none" /><path d="M 148 0 Z" fill="black" stroke="none" /><path d="M 93 0 Z" fill="black" stroke="none" /></svg>